<svg width="13" height="13" viewBox="0 0 13 13" fill="none" xmlns="http://www.w3.org/2000/svg">
<path d="M11.27 8H9C8.73478 8 8.48043 8.10536 8.29289 8.29289C8.10536 8.48043 8 8.73478 8 9V11.27M4 2.17V3C4 3.39782 4.15804 3.77936 4.43934 4.06066C4.72064 4.34196 5.10218 4.5 5.5 4.5C5.76522 4.5 6.01957 4.60536 6.20711 4.79289C6.39464 4.98043 6.5 5.23478 6.5 5.5C6.5 6.05 6.95 6.5 7.5 6.5C7.76522 6.5 8.01957 6.39464 8.20711 6.20711C8.39464 6.01957 8.5 5.76522 8.5 5.5C8.5 4.95 8.95 4.5 9.5 4.5H11.085M6 11.475V9.5C6 9.23478 5.89464 8.98043 5.70711 8.79289C5.51957 8.60536 5.26522 8.5 5 8.5C4.73478 8.5 4.48043 8.39464 4.29289 8.20711C4.10536 8.01957 4 7.76522 4 7.5V7C4 6.73478 3.89464 6.48043 3.70711 6.29289C3.51957 6.10536 3.26522 6 3 6H1.525M11.5 6.5C11.5 9.26142 9.26142 11.5 6.5 11.5C3.73858 11.5 1.5 9.26142 1.5 6.5C1.5 3.73858 3.73858 1.5 6.5 1.5C9.26142 1.5 11.5 3.73858 11.5 6.5Z" stroke="#748193" stroke-linecap="round" stroke-linejoin="round"/>
</svg>
