<svg width="18" height="18" viewBox="0 0 18 18" fill="none" xmlns="http://www.w3.org/2000/svg">
<g clip-path="url(#clip0_63_245)">
<path d="M13.5 16.5H3C2.60218 16.5 2.22064 16.342 1.93934 16.0607C1.65804 15.7794 1.5 15.3978 1.5 15V4.5M16.5 9.75L15.528 8.778C15.189 8.43909 14.7293 8.24869 14.25 8.24869C13.7707 8.24869 13.311 8.43909 12.972 8.778L8.25 13.5M10.5 6C10.5 6.82843 9.82843 7.5 9 7.5C8.17157 7.5 7.5 6.82843 7.5 6C7.5 5.17157 8.17157 4.5 9 4.5C9.82843 4.5 10.5 5.17157 10.5 6ZM6 1.5H15C15.8284 1.5 16.5 2.17157 16.5 3V12C16.5 12.8284 15.8284 13.5 15 13.5H6C5.17157 13.5 4.5 12.8284 4.5 12V3C4.5 2.17157 5.17157 1.5 6 1.5Z" stroke="#3F72B7" stroke-width="1.5" stroke-linecap="round" stroke-linejoin="round"/>
</g>
<defs>
<clipPath id="clip0_63_245">
<rect width="18" height="18" fill="white"/>
</clipPath>
</defs>
</svg>
