<svg width="350" height="299" viewBox="0 0 350 299" fill="none" xmlns="http://www.w3.org/2000/svg">
<g filter="url(#filter0_d_72_702)">
<path d="M51.7273 54.9822C52.1433 46.1555 59.6361 39.3373 68.4628 39.7533L291.315 50.2569C300.142 50.6729 306.96 58.1657 306.544 66.9924L298.57 236.175C298.154 245.001 290.661 251.82 281.834 251.404L58.9823 240.9C50.1555 240.484 43.3373 232.991 43.7533 224.164L51.7273 54.9822Z" fill="url(#paint0_linear_72_702)" shape-rendering="crispEdges"/>
<path d="M52.2268 55.0058C52.6298 46.4549 59.8884 39.8497 68.4393 40.2527L291.291 50.7563C299.842 51.1594 306.447 58.418 306.044 66.9689L298.07 236.151C297.667 244.702 290.409 251.307 281.858 250.904L59.0058 240.401C50.4549 239.997 43.8497 232.739 44.2528 224.188L52.2268 55.0058Z" stroke="#D4D9E0" shape-rendering="crispEdges"/>
<path d="M79.5372 61.7149C79.3556 61.9413 79.058 62.2529 78.6441 62.6499C78.2308 63.0362 77.8195 63.3799 77.4102 63.6809C77.0009 63.982 76.6844 64.1273 76.4607 64.1167C76.2263 64.1057 75.9974 63.9774 75.774 63.732C75.5512 63.4759 75.3732 63.1738 75.2401 62.8258C75.107 62.4778 75.047 62.1653 75.06 61.8883C75.0866 61.3236 75.2186 60.9027 75.4559 60.6255C75.6826 60.3479 76.0783 60.2224 76.643 60.249C76.6841 60.283 76.7343 60.3494 76.7937 60.4483C76.8537 60.5366 76.8986 60.6028 76.9285 60.6469C76.705 61.0849 76.5835 61.5116 76.5639 61.9271C76.5578 62.055 76.5779 62.1948 76.6242 62.3465C76.6709 62.4875 76.7245 62.5968 76.7849 62.6744C77.0071 62.4926 77.1851 62.3409 77.319 62.219C77.8652 61.7322 78.3533 61.3441 78.7834 61.0547C79.214 60.7546 79.6665 60.557 80.1408 60.4619C80.4285 60.4755 80.6876 60.6425 80.9181 60.9631C81.1491 61.273 81.257 61.5877 81.242 61.9074L80.6022 63.9275C78.7299 69.894 77.7479 73.0566 77.6562 73.4153C77.6309 73.4995 77.6155 73.6003 77.6099 73.7175C77.6049 73.824 77.6176 73.894 77.6481 73.9275C77.679 73.9503 77.7158 73.9627 77.7585 73.9647C77.897 73.9713 78.0494 73.909 78.2158 73.7781C78.3821 73.6471 78.5119 73.4984 78.6052 73.3319C78.8883 73.4414 79.0739 73.5836 79.1617 73.7586C79.2496 73.9336 79.2885 74.1276 79.2784 74.3407C79.2609 74.7136 79.0175 75.0065 78.5483 75.2193C78.0796 75.4215 77.5522 75.5087 76.9662 75.4811C76.6465 75.4661 76.3659 75.3033 76.1242 74.9929C75.8937 74.6724 75.7885 74.299 75.8086 73.8728C75.8192 73.6491 76.3596 71.8112 77.43 68.3591C78.5009 64.8963 79.2033 62.6816 79.5372 61.7149ZM80.4987 74.5904C80.5057 74.4413 80.5961 74.2213 80.77 73.9305C81.131 73.2961 81.4515 72.6118 81.7318 71.8775C82.0231 71.133 82.2745 70.1037 82.486 68.7896C82.2586 68.6294 82.0708 68.423 81.9225 68.1704C81.7854 67.9076 81.6853 67.6519 81.6223 67.4034C81.644 67.1695 81.8019 66.99 82.0961 66.8651C82.4015 66.73 82.7247 66.6705 83.0656 66.6865C83.5557 66.7096 83.8889 66.8909 84.0651 67.2302C84.2525 67.5594 84.3294 68.0809 84.2957 68.7948C84.2777 69.1784 84.1719 69.7233 83.9784 70.4297C83.7849 71.136 83.5491 71.835 83.2709 72.5267C82.9927 73.2183 82.7114 73.7497 82.4269 74.1207C83.0651 73.9479 83.837 73.8828 84.7427 73.9255L85.4771 73.9761C85.7957 74.0125 86.051 74.0352 86.2427 74.0443C86.3173 74.0478 86.3833 74.0082 86.4406 73.9255C86.5085 73.8432 86.5556 73.7493 86.582 73.6438C86.7333 72.9248 87.0096 71.934 87.4108 70.6715C87.812 69.409 88.2311 68.2221 88.6679 67.1108C89.1158 65.9893 89.482 65.243 89.7665 64.872C90.0509 64.501 90.3263 64.3217 90.5927 64.3343C90.8378 64.3458 91.0484 64.4092 91.2245 64.5243C91.4117 64.6292 91.5222 64.7786 91.5557 64.9723C91.0883 65.6017 90.6584 66.4517 90.2663 67.5225C89.8847 68.5937 89.464 69.93 89.0041 71.5315C88.9403 71.7527 88.8134 72.1792 88.6234 72.811C88.434 73.4321 88.2658 73.9421 88.1189 74.3409C87.9461 74.8347 87.7692 75.1894 87.5882 75.4051C87.4076 75.6102 87.1363 75.7042 86.774 75.6871C86.5396 75.6761 86.3219 75.6498 86.121 75.6083C85.9307 75.5673 85.8092 75.5402 85.7564 75.527C85.356 75.412 84.9268 75.3438 84.4686 75.3222C84.1916 75.3091 83.7946 75.3491 83.2776 75.4422C82.6536 75.541 82.1818 75.5828 81.8622 75.5677C81.372 75.5446 81.0186 75.4532 80.8019 75.2935C80.5852 75.1338 80.4841 74.8994 80.4987 74.5904ZM92.9441 67.7768C93.0079 67.5556 93.0906 67.3886 93.192 67.2759C93.3046 67.1531 93.4621 67.0965 93.6645 67.106C93.8989 67.117 94.1524 67.177 94.4249 67.286C94.6979 67.3843 94.8316 67.492 94.8261 67.6092L94.0556 70.0236C93.2886 72.4756 92.8664 73.8439 92.7889 74.1286C92.7636 74.2128 92.7482 74.3135 92.7426 74.4307C92.7376 74.5373 92.7503 74.6073 92.7808 74.6407C92.8117 74.6636 92.8485 74.676 92.8912 74.678C93.0297 74.6845 93.1821 74.6223 93.3485 74.4913C93.5148 74.3603 93.6446 74.2116 93.7379 74.0451C94.0211 74.1546 94.2066 74.2968 94.2944 74.4718C94.3823 74.6468 94.4212 74.8409 94.4111 75.054C94.3936 75.4269 94.1502 75.7197 93.681 75.9326C93.2123 76.1347 92.6849 76.222 92.0989 76.1944C91.7792 76.1793 91.4986 76.0166 91.2569 75.7062C91.0264 75.3856 90.9212 75.0123 90.9413 74.5861C90.9544 74.3091 91.4642 72.5551 92.4707 69.3243L92.9441 67.7768ZM103.193 69.1088C103.187 68.9911 103.16 68.899 103.109 68.8326C103.06 68.7555 102.966 68.7137 102.827 68.7071C102.36 68.8773 101.872 69.2495 101.365 69.8235C100.868 70.3981 100.406 71.0224 99.9791 71.6964C99.5629 72.3709 99.0466 73.2435 98.4302 74.3144C97.9745 75.1472 97.6145 75.7602 97.3504 76.1536C97.3256 76.2271 97.2472 76.3035 97.1153 76.3827C96.9936 76.4731 96.8955 76.5165 96.8209 76.513C96.5225 76.499 96.2384 76.4108 95.9684 76.2486C95.6984 76.0864 95.5605 75.8396 95.5548 75.5083C96.4726 73.4799 97.0691 71.4738 97.3441 69.4899C97.1167 69.3297 96.9342 69.1235 96.7966 68.8714C96.6595 68.6087 96.5594 68.353 96.4964 68.1044C96.5181 67.8705 96.676 67.6911 96.9703 67.5661C97.2756 67.431 97.5988 67.3715 97.9397 67.3876C98.4192 67.4102 98.7359 67.6013 98.8898 67.961C99.0442 68.3099 99.1038 68.8574 99.0687 69.6032C99.0511 69.9761 98.9268 70.5736 98.6959 71.3956C98.9321 70.9156 99.2783 70.3659 99.7347 69.7467C100.191 69.1275 100.735 68.5765 101.366 68.0937C101.998 67.6109 102.644 67.385 103.304 67.4162C103.709 67.4353 104.019 67.5406 104.234 67.7323C104.461 67.9139 104.616 68.1347 104.7 68.395C104.794 68.6557 104.879 69.0068 104.955 69.4481C104.854 69.5395 104.659 69.9468 104.368 70.6699C104.089 71.3829 103.828 72.1661 103.585 73.0196C103.342 73.8731 103.207 74.5769 103.181 75.1309C103.168 75.408 103.189 75.6385 103.244 75.8227C103.124 76.116 102.943 76.3317 102.701 76.4698C102.459 76.6186 102.189 76.686 101.891 76.6719C101.71 76.6634 101.554 76.5706 101.424 76.3936C101.293 76.2166 101.206 76.0256 101.162 75.8207C101.204 75.1606 101.406 74.2678 101.769 73.1423C102.132 72.0167 102.606 70.6723 103.193 69.1088ZM105.693 65.7348C105.653 65.8931 105.547 66.0055 105.373 66.0721C105.199 66.128 105.011 66.1511 104.809 66.1416C104.628 66.1331 104.449 66.0659 104.274 65.9402C104.098 65.8038 103.863 65.5898 103.567 65.2982C103.159 64.8945 102.794 64.5837 102.474 64.3657C102.142 64.1472 101.763 64.0279 101.337 64.0078C100.996 63.9917 100.647 64.0393 100.289 64.1506C99.9216 64.2507 99.7324 64.4127 99.7219 64.6364C99.7138 64.8069 99.8347 64.9621 100.084 65.102C100.335 65.2313 100.629 65.3359 100.967 65.4159C101.294 65.4847 101.57 65.5244 101.794 65.535L102.562 65.5552C102.701 65.551 102.877 65.554 103.09 65.564C103.324 65.5751 103.439 65.6445 103.432 65.7724C103.423 65.9642 103.32 66.1248 103.121 66.2543C102.912 66.3833 102.673 66.4788 102.403 66.5408C102.123 66.6023 101.881 66.6283 101.679 66.6188C101.061 66.5896 100.462 66.492 99.8825 66.3259C99.2924 66.1592 98.8171 65.9339 98.4567 65.65C98.0857 65.3655 97.909 65.0369 97.9266 64.6639C97.9457 64.2591 98.1599 63.9061 98.5691 63.605C98.9678 63.3035 99.4481 63.0805 100.01 62.9361C100.562 62.7806 101.051 62.7129 101.477 62.733C102.159 62.7651 102.735 62.9097 103.203 63.1667C103.672 63.413 104.123 63.8081 104.557 64.3517C104.637 64.4517 104.724 64.5465 104.816 64.6362L105.433 62.0705C105.449 61.9644 105.559 61.8789 105.765 61.8138C105.972 61.7381 106.16 61.7043 106.331 61.7123C106.533 61.7219 106.696 61.7883 106.818 61.9115C106.941 62.0241 107.065 62.2275 107.19 62.5217L105.693 65.7348ZM108.365 58.6687C108.315 58.8265 108.164 59.1985 107.912 59.7846C107.876 59.8684 107.816 60.0097 107.732 60.2086C107.648 60.3969 107.575 60.575 107.514 60.743C107.465 60.8901 107.373 61.03 107.238 61.1625C107.104 61.2843 106.899 61.3387 106.622 61.3256C106.473 61.3186 106.354 61.2276 106.266 61.0526C106.189 60.8781 106.155 60.6949 106.164 60.5032C106.173 60.3114 106.231 59.9937 106.337 59.5502C106.444 59.0961 106.586 58.6917 106.763 58.3369C106.95 57.9827 107.151 57.8106 107.364 57.8207C107.566 57.8302 107.792 57.8996 108.043 58.0288C108.293 58.1475 108.42 58.2816 108.424 58.4313C108.423 58.4632 108.415 58.5003 108.403 58.5424C108.391 58.5738 108.378 58.616 108.365 58.6687ZM111.903 70.9289L112.531 68.8281C112.618 68.5546 112.751 68.3366 112.93 68.1742C113.108 68.0118 113.283 67.9346 113.453 67.9426C113.741 67.9562 113.973 68.0258 114.148 68.1515C114.335 68.2778 114.433 68.4586 114.443 68.694C114.393 68.8625 114.132 69.7365 113.663 71.3162C113.182 72.9166 112.847 74.0061 112.66 74.5846C112.51 75.0474 112.229 75.4613 111.816 75.8263C111.415 76.1918 110.921 76.4728 110.335 76.6695C109.749 76.8661 109.126 76.9488 108.465 76.9177C107.762 76.8846 107.161 76.7334 106.661 76.4642C106.161 76.1844 105.783 75.8302 105.525 75.4016C105.279 74.9629 105.168 74.4931 105.191 73.9923C105.218 73.4383 105.454 72.9529 105.901 72.5361C106.348 72.1193 106.982 71.7969 107.804 71.5687C107.45 71.3811 107.137 71.1207 106.864 70.7875C106.603 70.4442 106.481 70.086 106.498 69.7131C106.526 69.1164 106.731 68.6189 107.113 68.2204C107.496 67.8113 107.964 67.6198 108.518 67.6459C108.859 67.662 109.175 67.7516 109.466 67.9148C109.758 68.0674 109.899 68.2609 109.887 68.4953C109.88 68.6551 109.793 68.7952 109.627 68.9155C109.473 69.0257 109.242 69.1537 108.937 69.2994C108.674 69.4366 108.476 69.55 108.344 69.6399C108.211 69.7298 108.143 69.8333 108.137 69.9505C108.127 70.1636 108.193 70.3429 108.336 70.4885C108.479 70.6234 108.701 70.778 109.003 70.9524C109.252 71.103 109.438 71.2345 109.561 71.3471C109.694 71.4602 109.758 71.5913 109.751 71.7405C109.746 71.8364 109.683 71.9242 109.562 72.0039C109.441 72.0729 109.228 72.1804 108.922 72.3261C108.354 72.5983 107.903 72.8708 107.57 73.1434C107.237 73.4053 107.061 73.7547 107.04 74.1916C107.023 74.5645 107.168 74.881 107.476 75.1411C107.784 75.4013 108.226 75.5449 108.801 75.572C109.249 75.5931 109.681 75.4747 110.099 75.2167C110.528 74.9593 110.819 74.5619 110.972 74.0245L111.903 70.9289ZM121.844 71.1091C121.805 71.9295 121.607 72.8386 121.251 73.8362C120.905 74.8344 120.4 75.6862 119.737 76.3918C119.084 77.0872 118.311 77.4138 117.416 77.3716C116.873 77.346 116.447 77.2084 116.138 76.959C115.83 76.6988 115.685 76.3663 115.704 75.9615C115.719 75.6418 115.844 75.386 116.077 75.1941C116.321 74.9921 116.609 74.8935 116.94 74.8984C116.929 75.3464 116.995 75.6486 117.137 75.8048C117.28 75.9503 117.463 76.0283 117.687 76.0389C117.975 76.0524 118.303 75.7689 118.672 75.1883C119.052 74.5976 119.384 73.9031 119.667 73.1049C119.951 72.296 120.106 71.6145 120.132 71.0605C120.152 70.6449 120.056 70.2934 119.845 70.0058C119.635 69.7076 119.194 69.5427 118.523 69.511C117.916 69.4824 117.401 69.6503 116.978 70.0148C116.566 70.3692 116.323 70.8703 116.25 71.5182C115.835 71.4986 115.504 71.3869 115.257 71.1831C115.011 70.9686 114.894 70.7282 114.906 70.4618C114.929 69.9823 115.104 69.5634 115.43 69.2051C115.768 68.8365 116.229 68.5593 116.815 68.3733C117.411 68.1879 118.082 68.1127 118.828 68.1478C119.861 68.1966 120.632 68.4998 121.139 69.0577C121.647 69.6155 121.882 70.2993 121.844 71.1091ZM129.683 77.5013C129.543 77.751 129.368 77.9403 129.159 78.0693C128.95 78.1982 128.628 78.2524 128.191 78.2318C127.85 78.2158 127.687 78.0426 127.703 77.7123C127.706 77.6484 127.721 77.553 127.748 77.4261L128.094 76.209C128.182 75.9249 128.264 75.6564 128.34 75.4037C128.416 75.151 128.485 74.9247 128.548 74.7248C128.823 73.8728 129.026 73.1883 129.158 72.6712C129.3 72.144 129.382 71.6513 129.403 71.1931C129.44 70.4153 128.947 70.0023 127.924 69.9541C127.285 69.924 126.657 70.0011 126.039 70.1856C125.433 70.3599 124.977 70.6214 124.673 70.9702C125.044 71.0197 125.369 71.1578 125.646 71.3845C125.924 71.6005 126.056 71.8683 126.041 72.1879C126.036 72.2838 126.015 72.3896 125.978 72.5053L125.53 73.8617C125.208 74.7969 124.959 75.5487 124.783 76.117C124.606 76.6854 124.504 77.1557 124.476 77.5282C124.289 77.6475 124.062 77.7009 123.795 77.6883C123.497 77.6742 123.271 77.5995 123.117 77.4641C122.974 77.3399 122.907 77.1766 122.916 76.9741C122.946 76.3348 123.083 75.5831 123.327 74.7189C123.57 73.8548 123.89 72.9622 124.286 72.0411C124.183 71.9615 124.006 71.8624 123.755 71.7438C123.494 71.6141 123.302 71.4982 123.179 71.3963C123.067 71.2842 123.015 71.1376 123.024 70.9565C123.046 70.4877 123.29 70.0667 123.756 69.6936C124.233 69.3103 124.855 69.0193 125.623 68.8205C126.391 68.6218 127.2 68.5425 128.053 68.5826C128.618 68.6093 129.14 68.7407 129.62 68.9769C130.111 69.2029 130.496 69.5307 130.775 69.9603C131.065 70.3798 131.196 70.8878 131.168 71.4845C131.142 72.0386 131.044 72.6373 130.875 73.2807C130.717 73.914 130.499 74.6832 130.221 75.5885C129.97 76.3882 129.791 77.0258 129.683 77.5013ZM127.479 66.1049C127.491 65.8385 127.554 65.5371 127.666 65.2007C127.778 64.8536 127.92 64.5613 128.091 64.3237C128.263 64.0862 128.434 63.9715 128.604 63.9795C128.998 63.9981 129.321 64.0667 129.571 64.1853C129.823 64.2932 129.942 64.4697 129.931 64.7148C129.925 64.832 129.781 65.0708 129.497 65.4311L129.204 65.8658L129.291 66.0621C129.577 65.8727 130.089 65.6673 130.826 65.4457C131.562 65.2241 132.313 65.0406 133.078 64.8951C133.843 64.7497 134.375 64.684 134.673 64.698C134.961 64.7116 135.182 64.7647 135.338 64.8575C135.505 64.9508 135.582 65.1253 135.57 65.381C135.566 65.4662 135.524 65.5497 135.446 65.6314C135.378 65.7137 135.307 65.753 135.232 65.7495C134.891 65.7334 134.434 65.8027 133.861 65.9572C133.288 66.1117 132.524 66.3427 131.57 66.6501C130.767 66.9112 130.155 67.1013 129.733 67.2202C129.3 67.3386 128.972 67.3926 128.748 67.382C128.567 67.3735 128.378 67.2952 128.182 67.1472C127.976 66.9879 127.809 66.8092 127.679 66.6109C127.54 66.4014 127.473 66.2327 127.479 66.1049ZM131.754 77.0063C131.761 76.8571 131.852 76.6371 132.026 76.3463C132.387 75.7119 132.707 75.0276 132.987 74.2933C133.279 73.5489 133.53 72.5196 133.742 71.2054C133.514 71.0452 133.326 70.8388 133.178 70.5862C133.041 70.3234 132.941 70.0678 132.878 69.8192C132.9 69.5853 133.058 69.4058 133.352 69.2809C133.657 69.1458 133.98 69.0863 134.321 69.1023C134.811 69.1254 135.139 69.3011 135.306 69.6293C135.482 69.9579 135.554 70.4846 135.519 71.2091C135.501 71.5927 135.401 72.1379 135.218 72.8447C135.035 73.5516 134.805 74.2508 134.526 74.9425C134.259 75.624 133.989 76.1505 133.715 76.522C134.337 76.2523 135.074 76.1376 135.926 76.1777C136.064 76.1843 136.213 76.2019 136.372 76.2308C136.531 76.2596 136.642 76.2809 136.705 76.2946C137.043 76.3746 137.308 76.4191 137.5 76.4281C137.574 76.4316 137.64 76.392 137.698 76.3093C137.766 76.2271 137.813 76.1332 137.839 76.0276C138.049 74.9697 138.312 73.9196 138.628 72.8773C138.945 71.8244 139.279 70.9751 139.629 70.3296C140.028 69.5795 140.419 69.2135 140.802 69.2316C141.047 69.2432 141.253 69.3062 141.418 69.4208C141.595 69.5252 141.7 69.6744 141.733 69.8682C141.12 70.8751 140.615 72.0793 140.218 73.4808C140.14 73.7761 140.026 74.262 139.877 74.9384C139.713 75.6888 139.563 76.2744 139.425 76.6951C139.288 77.1157 139.096 77.4591 138.848 77.725C138.601 77.991 138.275 78.1145 137.87 78.0954C137.678 78.0863 137.508 78.0623 137.361 78.0233C137.224 77.9848 137.061 77.9291 136.872 77.8561C136.662 77.7715 136.462 77.7087 136.272 77.6677C136.082 77.616 135.854 77.5839 135.588 77.5714C135.375 77.5613 135.144 77.5878 134.895 77.6509C134.657 77.7144 134.512 77.7502 134.458 77.7584C134.187 77.8417 133.949 77.8999 133.745 77.933C133.54 77.9767 133.331 77.9936 133.118 77.9835C132.628 77.9604 132.274 77.869 132.057 77.7093C131.841 77.5496 131.74 77.3152 131.754 77.0063ZM153.566 72.9567C154.003 72.9772 154.318 73.0722 154.513 73.2416C154.719 73.4008 154.844 73.5935 154.887 73.8198C154.93 74.0354 154.943 74.3137 154.927 74.6546C154.885 75.5496 154.603 76.3319 154.08 77.0013C153.558 77.6602 152.893 78.1628 152.087 78.5092C151.281 78.8449 150.435 78.992 149.551 78.9503C148.273 78.89 147.352 78.4889 146.789 77.7469C146.226 77.0049 145.969 76.1171 146.017 75.0836C146.075 73.8583 146.455 72.7069 147.157 71.6295C147.87 70.5418 148.722 69.685 149.713 69.0589C150.715 68.4227 151.642 68.1247 152.494 68.1649C153.687 68.2211 154.539 68.5015 155.049 69.0061C155.56 69.5 155.794 70.1998 155.751 71.1055C155.736 71.4251 155.601 71.6911 155.345 71.9033C155.1 72.116 154.775 72.2128 154.371 72.1937C154.051 72.1786 153.836 72.0831 153.727 71.9071C153.629 71.7316 153.586 71.5107 153.598 71.2443L153.638 70.7336C153.648 70.5418 153.55 70.3503 153.345 70.1592C153.141 69.968 152.948 69.8681 152.767 69.8596C152.17 69.8315 151.502 70.0723 150.762 70.582C150.023 71.0811 149.387 71.7773 148.854 72.6705C148.321 73.5531 148.03 74.5271 147.979 75.5926C147.956 76.0827 148.129 76.4913 148.498 76.8184C148.867 77.1454 149.345 77.3228 149.931 77.3504C150.346 77.37 150.789 77.268 151.259 77.0446C151.729 76.8104 152.129 76.4876 152.458 76.0759C152.798 75.6542 152.98 75.1982 153.003 74.7081C152.852 74.7224 152.632 74.76 152.341 74.821C151.92 74.908 151.559 74.9711 151.258 75.0103C150.968 75.05 150.679 75.0631 150.392 75.0495C150.051 75.0335 149.797 74.9788 149.631 74.8855C149.475 74.7821 149.403 74.6132 149.414 74.3788C149.422 74.2189 149.468 74.0342 149.552 73.8247C149.648 73.6156 149.756 73.4659 149.878 73.3755C150.417 73.2621 151.036 73.1578 151.735 73.0626C152.444 72.9678 153.054 72.9325 153.566 72.9567ZM159.605 79.4241C158.337 79.3644 157.408 78.9095 156.818 78.0594C156.228 77.2094 155.966 76.0811 156.032 74.6747C156.087 73.5133 156.388 72.449 156.936 71.4817C157.483 70.5144 158.218 69.7588 159.141 69.215C160.063 68.6711 161.084 68.4256 162.203 68.4783C163.29 68.5295 164.14 68.9434 164.755 69.7199C165.381 70.4862 165.66 71.6045 165.59 73.0749C165.541 74.1191 165.247 75.1464 164.708 76.1568C164.18 77.1571 163.47 77.9671 162.575 78.5871C161.682 79.1963 160.691 79.4754 159.605 79.4241ZM159.896 77.9963C160.418 78.0209 160.944 77.752 161.472 77.1896C162 76.6272 162.441 75.8951 162.793 74.9933C163.156 74.0921 163.359 73.1673 163.404 72.219C163.438 71.4945 163.34 70.9666 163.11 70.6354C162.892 70.2941 162.478 70.1091 161.871 70.0805C161.2 70.0488 160.589 70.3137 160.04 70.8751C159.49 71.4365 159.051 72.1473 158.722 73.0075C158.393 73.8676 158.209 74.7079 158.171 75.5283C158.148 76.0078 158.213 76.4326 158.367 76.8029C158.531 77.1737 158.747 77.4616 159.015 77.6664C159.293 77.8718 159.587 77.9817 159.896 77.9963ZM173.887 73.9144C174.324 73.935 174.64 74.03 174.835 74.1994C175.041 74.3586 175.165 74.5513 175.208 74.7776C175.251 74.9932 175.265 75.2715 175.248 75.6124C175.206 76.5074 174.924 77.2897 174.401 77.9591C173.879 78.6179 173.214 79.1206 172.408 79.467C171.602 79.8027 170.757 79.9498 169.872 79.9081C168.594 79.8478 167.673 79.4467 167.11 78.7047C166.547 77.9627 166.29 77.0749 166.338 76.0414C166.398 74.7841 166.698 73.613 167.241 72.528C167.783 71.443 168.459 70.5885 169.268 69.9646C170.088 69.3305 170.913 69.033 171.745 69.0722C172.522 69.1089 173.183 69.2575 173.726 69.518C174.269 69.7785 174.67 70.1071 174.929 70.5037C175.188 70.8897 175.308 71.2851 175.289 71.69C175.274 72.0203 175.155 72.271 174.933 72.4421C174.712 72.6132 174.399 72.6892 173.994 72.6701C173.674 72.655 173.45 72.527 173.323 72.2861C173.207 72.035 173.155 71.7656 173.169 71.4779C173.175 71.3394 173.097 71.1916 172.933 71.0344C172.781 70.8777 172.582 70.7935 172.337 70.782C171.751 70.7544 171.152 70.9931 170.541 71.4982C169.93 71.9927 169.417 72.6893 169.001 73.588C168.585 74.4761 168.352 75.4636 168.301 76.5504C168.277 77.0511 168.434 77.4643 168.771 77.7899C169.108 78.1048 169.565 78.2758 170.14 78.3029C170.556 78.3225 171.009 78.2157 171.501 77.9826C171.992 77.7495 172.413 77.4276 172.764 77.017C173.114 76.6064 173.301 76.156 173.324 75.6659C173.217 75.6715 173.082 75.6972 172.92 75.7429C172.714 75.7973 172.526 75.8365 172.354 75.8604C172.192 75.8848 171.968 75.8903 171.68 75.8767C171.339 75.8606 171.085 75.806 170.919 75.7127C170.764 75.6093 170.692 75.4404 170.703 75.206C170.71 75.0461 170.756 74.8614 170.841 74.6518C170.936 74.4428 171.045 74.293 171.166 74.2027C171.695 74.0888 172.153 74.0089 172.539 73.963C172.926 73.9065 173.375 73.8903 173.887 73.9144ZM181.913 76.2789C182.248 76.8714 182.656 77.5206 183.135 78.2266C183.614 78.9326 184.017 79.4482 184.343 79.7732C184.384 79.8179 184.451 79.9812 184.545 80.2632C184.649 80.5458 184.705 80.7193 184.712 80.7837C184.697 80.8898 184.633 80.9936 184.521 81.0951C184.41 81.1966 184.226 81.2413 183.97 81.2293C183.534 81.2087 183.274 81.1698 183.191 81.1125C182.697 80.7261 182.109 80.0524 181.428 79.0912C180.759 78.12 180.272 77.2374 179.967 76.4435L179.728 76.4322C179.429 76.4182 179.211 76.4025 179.073 76.3853L178.254 79.1499C178.152 79.4974 178.023 79.753 177.866 79.9164C177.709 80.0692 177.428 80.1361 177.023 80.117C176.693 80.1014 176.451 80.0313 176.296 79.9065C176.152 79.7929 176.081 79.6027 176.083 79.3358C176.088 79.2186 176.11 79.1075 176.147 79.0025L178.348 71.3697C178.342 71.2733 178.269 71.1257 178.129 70.9268C178.119 70.905 178.08 70.8391 178.01 70.729C177.941 70.6083 177.904 70.4944 177.898 70.3874C177.934 70.0794 178.143 69.8436 178.524 69.6801C179.523 69.5669 180.421 69.5292 181.22 69.5669C182.179 69.6121 182.967 69.7827 183.583 70.0787C184.21 70.3645 184.663 70.7329 184.94 71.1838C185.229 71.6246 185.361 72.1113 185.336 72.6441C185.291 73.603 184.965 74.3939 184.359 75.0167C183.754 75.6289 182.939 76.0496 181.913 76.2789ZM179.54 74.6454C179.667 74.6621 179.848 74.6759 180.082 74.687C180.636 74.7131 181.147 74.6464 181.613 74.4868C182.08 74.3273 182.454 74.094 182.735 73.7869C183.028 73.4696 183.184 73.1033 183.204 72.6877C183.225 72.2402 183.06 71.8961 182.708 71.6552C182.356 71.4144 181.882 71.2799 181.285 71.2518C181.019 71.2392 180.735 71.2526 180.434 71.2918C180.354 71.6404 180.191 72.2681 179.945 73.1748L179.54 74.6454ZM188.173 75.9012C188.68 75.1242 189.213 74.3538 189.772 73.5899C190.342 72.8266 191.047 71.9201 191.886 70.8705C192.091 70.6131 192.351 70.4065 192.668 70.2506C192.985 70.0947 193.309 70.0245 193.639 70.0401C194.14 70.0637 194.467 70.1432 194.621 70.2786C194.775 70.414 194.845 70.6202 194.832 70.8972L194.747 72.3668C194.69 73.1117 194.652 73.7025 194.631 74.1393C194.568 75.4925 194.56 76.6775 194.608 77.6942C194.631 78.5602 194.701 79.3377 194.818 80.0267C194.796 80.2819 194.694 80.512 194.514 80.7171C194.334 80.9115 194.116 81.0027 193.86 80.9906C193.37 80.9675 193.04 80.8292 192.87 80.5756C192.701 80.322 192.603 79.9009 192.578 79.3124C192.573 78.9491 192.598 78.2081 192.65 77.0893C191.265 77.2483 190.163 77.4099 189.344 77.5742C189.158 77.8965 189.012 78.1512 188.907 78.3385C188.674 78.7653 188.476 79.1031 188.315 79.3517C188.164 79.6009 187.994 79.8172 187.804 80.0004C187.58 80.2248 187.402 80.3766 187.27 80.4558C187.137 80.5456 186.975 80.586 186.784 80.577C186.464 80.5619 186.179 80.4791 185.93 80.3286C185.682 80.1673 185.555 80.0119 185.552 79.8622C185.562 79.8627 185.661 79.7018 185.847 79.3796C185.927 79.2552 186.228 78.7782 186.747 77.9484C187.267 77.1079 187.743 76.4256 188.173 75.9012ZM190.517 75.7875C190.733 75.7442 191.023 75.7099 191.387 75.6843L192.675 75.5528C192.688 74.8059 192.703 74.2674 192.719 73.9371C192.752 73.2339 192.798 72.7074 192.857 72.3578C192.608 72.6558 192.266 73.1308 191.829 73.783C191.404 74.425 190.966 75.0932 190.517 75.7875ZM196.979 72.0395C196.986 71.8904 197.034 71.7752 197.123 71.694C197.224 71.6026 197.356 71.5234 197.519 71.4563C197.574 71.4269 197.77 71.34 198.108 71.1958C198.457 71.052 198.787 70.9448 199.1 70.8741C199.206 70.6655 199.358 70.4965 199.557 70.367C199.766 70.2381 200.025 70.1809 200.334 70.1954C200.515 70.204 200.662 70.2483 200.776 70.3284C200.89 70.3979 200.966 70.4869 201.004 70.5954C201.404 70.4861 201.881 70.4446 202.435 70.4707C203.128 70.5033 203.717 70.6806 204.204 71.0025C204.702 71.3143 205.066 71.732 205.298 72.2554C205.54 72.7794 205.646 73.3611 205.616 74.0004C205.61 74.1282 205.586 74.3033 205.544 74.5255C204.989 76.9982 203.066 78.1569 199.773 78.0017C199.475 77.9877 199.257 77.972 199.119 77.9549L198.875 78.7122C198.613 79.5221 198.481 79.9377 198.48 79.959C198.377 80.3279 198.23 80.6093 198.04 80.8032C197.86 80.9976 197.572 81.0855 197.178 81.0669C196.848 81.0514 196.606 80.9812 196.451 80.8565C196.307 80.7429 196.241 80.5529 196.254 80.2866C196.259 80.1694 196.281 80.0582 196.318 79.9532L198.603 72.5806C198.042 72.7143 197.611 72.9129 197.31 73.1764C197.199 73.043 197.111 72.8733 197.046 72.6674C196.992 72.4513 196.97 72.242 196.979 72.0395ZM199.525 76.4843C199.652 76.501 199.833 76.5149 200.067 76.5259C201.079 76.5736 201.888 76.4195 202.492 76.0635C203.106 75.7081 203.518 75.1348 203.726 74.3438C203.767 74.1641 203.789 74.0317 203.793 73.9465C203.821 73.3498 203.677 72.8998 203.36 72.5966C203.044 72.2827 202.587 72.1117 201.991 72.0835C201.671 72.0685 201.257 72.1237 200.749 72.2493C200.256 73.8812 199.848 75.2929 199.525 76.4843ZM206.836 77.1493C206.572 77.0941 206.378 77.0049 206.256 76.8817C206.134 76.7585 206.077 76.6116 206.085 76.4411C206.099 76.1428 206.189 75.9175 206.357 75.7652C206.535 75.6027 206.877 75.4907 207.382 75.4291L208.392 72.0168C208.531 71.5535 208.668 71.2503 208.803 71.1072C208.949 70.9539 209.198 70.8855 209.549 70.9021C209.837 70.9157 210.097 70.9599 210.328 71.0349C210.57 71.1104 210.693 71.2123 210.698 71.3407C210.698 71.3407 210.647 71.5198 210.544 71.878C210.308 72.593 209.978 73.704 209.554 75.2111C211.146 74.9658 212.654 74.8179 214.076 74.7675L215.049 71.4656C215.1 71.2865 215.223 71.1695 215.418 71.1146C215.623 71.0602 215.87 71.0398 216.157 71.0534C216.488 71.0689 216.71 71.1168 216.823 71.1969C216.948 71.2668 217.034 71.367 217.082 71.4974C216.873 72.0749 215.984 75.1938 214.414 80.8542C214.237 81.4332 213.989 81.7151 213.669 81.7001C212.689 81.6538 212.21 81.4017 212.232 80.9435C212.246 80.8588 212.284 80.7271 212.346 80.5485C212.409 80.3592 212.472 80.1486 212.536 79.9167C213.038 78.3279 213.387 77.1644 213.582 76.4261C211.471 76.5829 209.974 76.7365 209.091 76.8872L207.93 80.7888C207.841 81.0943 207.719 81.2968 207.565 81.3963C207.421 81.4963 207.137 81.5363 206.71 81.5162C206.38 81.5006 206.138 81.4305 205.984 81.3058C205.839 81.1922 205.774 81.0022 205.786 80.7358C205.792 80.6186 205.813 80.5075 205.85 80.4025L206.836 77.1493ZM226.165 72.8385C225.561 73.643 224.386 75.0078 222.64 76.9331C221.614 78.0807 221.056 78.7058 220.966 78.8084L220.416 81.2972C220.374 81.5088 220.319 81.6664 220.25 81.7699C220.181 81.8735 220.071 81.943 219.919 81.9786C219.768 82.0249 219.548 82.0412 219.26 82.0276C218.93 82.0121 218.688 81.9472 218.533 81.8332C218.389 81.7089 218.324 81.5136 218.336 81.2473C218.344 81.0768 218.517 80.1185 218.856 78.3725L217.822 71.7725C217.828 71.634 217.919 71.5208 218.094 71.433C218.28 71.3456 218.527 71.3092 218.836 71.3238C219.219 71.3419 219.495 71.3869 219.662 71.4588C219.83 71.5202 219.915 71.6576 219.915 71.8712L220.546 76.8504C222.807 73.4972 224.183 71.8321 224.673 71.8552C224.908 71.8662 225.14 71.9306 225.369 72.0482C225.598 72.1658 225.784 72.3027 225.926 72.4589C226.079 72.6156 226.159 72.7421 226.165 72.8385ZM78.2189 89.6838C78.0374 89.9102 77.7397 90.2219 77.3259 90.6188C76.9126 91.0051 76.5013 91.3488 76.092 91.6499C75.6827 91.951 75.3662 92.0962 75.1424 92.0857C74.908 92.0746 74.6791 91.9464 74.4558 91.7009C74.2329 91.4448 74.0549 91.1428 73.9218 90.7948C73.7887 90.4468 73.7287 90.1343 73.7418 89.8573C73.7684 89.2925 73.9004 88.8716 74.1377 88.5945C74.3643 88.3169 74.76 88.1913 75.3247 88.218C75.3658 88.2519 75.4161 88.3184 75.4755 88.4173C75.5354 88.5055 75.5803 88.5717 75.6103 88.6158C75.3868 89.0538 75.2652 89.4806 75.2456 89.8961C75.2396 90.024 75.2597 90.1637 75.3059 90.3154C75.3527 90.4564 75.4063 90.5657 75.4667 90.6433C75.6888 90.4616 75.8668 90.3098 76.0007 90.188C76.5469 89.7011 77.0351 89.313 77.4652 89.0236C77.8958 88.7236 78.3482 88.526 78.8226 88.4309C79.1102 88.4444 79.3693 88.6115 79.5998 88.932C79.8308 89.2419 79.9388 89.5567 79.9237 89.8763L79.2839 91.8964C77.4116 97.8629 76.4296 101.026 76.338 101.384C76.3126 101.469 76.2972 101.569 76.2917 101.686C76.2867 101.793 76.2994 101.863 76.3298 101.896C76.3608 101.919 76.3976 101.932 76.4402 101.934C76.5787 101.94 76.7312 101.878 76.8975 101.747C77.0639 101.616 77.1937 101.467 77.2869 101.301C77.5701 101.41 77.7556 101.553 77.8435 101.728C77.9313 101.903 77.9702 102.097 77.9602 102.31C77.9426 102.683 77.6992 102.975 77.23 103.188C76.7613 103.39 76.234 103.478 75.6479 103.45C75.3283 103.435 75.0476 103.272 74.806 102.962C74.5755 102.641 74.4703 102.268 74.4904 101.842C74.5009 101.618 75.0414 99.7801 76.1118 96.328C77.1826 92.8653 77.885 90.6505 78.2189 89.6838ZM83.2811 96.778C83.2606 97.2149 83.1649 97.771 82.9943 98.4464C82.8343 99.1223 82.6273 99.7746 82.3735 100.403C83.192 100.709 84.1266 101.271 85.1772 102.089C85.7586 99.9489 86.29 98.1906 86.7713 96.8144C87.2633 95.4387 87.7224 94.7609 88.1486 94.781C88.7026 94.8071 88.9899 95.0556 89.0104 95.5264C88.91 95.6178 88.6899 96.2107 88.3499 97.3053C88.0212 98.3897 87.6887 99.554 87.3524 100.798C87.0268 102.043 86.8414 102.803 86.7964 103.079C86.544 103.675 86.1302 103.96 85.5548 103.933C85.3311 103.922 85.0687 103.825 84.7677 103.64C84.4774 103.455 84.0899 103.181 83.6052 102.816C82.884 102.259 82.3349 101.902 81.9578 101.745C81.9305 101.872 81.8813 102.009 81.8104 102.155C81.6178 102.616 81.3176 102.98 80.9098 103.25C80.502 103.519 80.117 103.645 79.7548 103.628C79.3073 103.607 78.9934 103.469 78.8131 103.215C78.6223 102.96 78.5356 102.646 78.5532 102.274C78.5697 101.922 78.6708 101.59 78.8563 101.279C79.0317 100.956 79.2683 100.695 79.566 100.495C79.8749 100.286 80.2163 100.179 80.5902 100.175C80.8608 99.419 81.0546 98.8195 81.1716 98.3765C81.2992 97.934 81.3991 97.3995 81.4714 96.7728C81.244 96.6126 81.0615 96.4065 80.9239 96.1544C80.7868 95.8916 80.6867 95.636 80.6237 95.3874C80.6454 95.1535 80.8033 94.9741 81.0975 94.8491C81.4029 94.714 81.7261 94.6545 82.067 94.6705C82.5571 94.6936 82.8903 94.8749 83.0665 95.2142C83.2433 95.5429 83.3148 96.0642 83.2811 96.778ZM90.0589 90.37C89.9839 90.6014 89.8868 90.8478 89.7677 91.1091C89.6598 91.3603 89.5822 91.5329 89.5351 91.6268C89.3106 92.086 89.1302 92.5154 88.9939 92.9147C88.9817 92.9462 88.9561 93.0357 88.9171 93.1834C88.8786 93.3204 88.793 93.4392 88.6601 93.5397C88.5277 93.6296 88.3443 93.669 88.1099 93.6579C87.8116 93.6439 87.6775 93.3172 87.7076 92.6779C87.7196 92.4222 87.792 92.0198 87.9247 91.4708C88.0573 90.9217 88.2298 90.4333 88.4422 90.0055C88.6551 89.5671 88.8947 89.3541 89.1611 89.3667C89.3955 89.3777 89.616 89.4575 89.8226 89.6061C90.0296 89.744 90.1393 89.9093 90.1516 90.1021C90.1496 90.1447 90.1366 90.1922 90.1128 90.2444C90.0895 90.2861 90.0715 90.3279 90.0589 90.37ZM93.412 99.7703C93.415 99.7064 93.397 99.6361 93.3579 99.5595C93.3299 99.4728 93.3111 99.4185 93.3015 99.3967C93.204 99.1999 93.158 99.0429 93.1635 98.9257C93.1655 98.8831 93.2431 98.8227 93.3963 98.7445C93.5606 98.6561 93.7562 98.5852 93.9829 98.5318C94.2102 98.4678 94.4197 98.4403 94.6115 98.4493C94.8033 98.4584 94.9543 98.5402 95.0645 98.6949C95.1746 98.8496 95.2239 99.0495 95.2124 99.2946C95.1793 99.9978 94.9209 100.722 94.4372 101.468C93.9535 102.215 93.3318 102.831 92.572 103.319C91.8234 103.796 91.0548 104.016 90.2664 103.979C89.7869 103.956 89.4567 103.711 89.2759 103.243C89.1057 102.776 89.0347 102.244 89.0628 101.648C89.0879 101.115 89.2651 100.301 89.5943 99.206C89.9241 98.1003 90.4033 97.1084 91.032 96.2304C91.6612 95.3417 92.418 94.9181 93.3024 94.9598C93.5687 94.9724 93.8047 95.0636 94.0103 95.2335C94.2163 95.3927 94.4204 95.5945 94.6224 95.839C94.7646 95.9952 94.846 96.0791 94.8669 96.0907L95.4283 95.7328C95.7479 95.5236 96.1027 95.3588 96.4928 95.2383C96.8935 95.1184 97.2591 95.0662 97.5894 95.0818C98.0369 95.1029 98.3541 95.3955 98.5411 95.9596C98.7286 96.513 98.806 97.136 98.7734 97.8286C98.7568 98.1802 98.7163 98.472 98.652 98.7038L97.1454 103.823C97.0694 104.075 96.9043 104.292 96.6502 104.472C96.3956 104.663 96.0446 104.748 95.5971 104.727C95.4159 104.718 95.2954 104.67 95.2355 104.582C95.1756 104.493 95.1494 104.369 95.1569 104.209C95.16 104.145 95.1751 104.05 95.2025 103.923L96.6264 99.201C96.793 98.6109 96.8871 98.0867 96.9087 97.6286C96.9238 97.3089 96.8967 96.9766 96.8276 96.6317C95.6908 97.1868 94.8934 97.4535 94.4352 97.4319C94.2328 97.4224 94.0389 97.3438 93.8537 97.1963C93.6791 97.0492 93.5002 96.8806 93.3169 96.6904C93.1448 96.4901 93.0283 96.3565 92.9674 96.2895C92.6611 96.6702 92.3359 97.2262 91.9918 97.9575C91.6476 98.6887 91.3568 99.4225 91.1192 100.159C90.8816 100.895 90.7537 101.455 90.7357 101.839C90.7226 102.116 90.7853 102.257 90.9238 102.264C91.1796 102.276 91.5009 102.142 91.8879 101.861C92.2855 101.581 92.6324 101.245 92.9285 100.853C93.2358 100.451 93.3969 100.09 93.412 99.7703ZM95.5208 91.6526C95.5263 91.5354 95.4705 91.474 95.3533 91.4685C95.2574 91.464 95.1488 91.5016 95.0276 91.5813C94.8962 91.6499 94.8196 91.689 94.7978 91.6986C94.6436 91.7981 94.5452 91.8469 94.5026 91.8449C94.396 91.8399 94.2991 91.7445 94.2117 91.5589C94.1142 91.3621 94.0692 91.1837 94.0768 91.0239C94.0833 90.8854 94.1862 90.7408 94.3855 90.59C94.5849 90.4392 94.8256 90.3171 95.1076 90.2236C95.379 90.1296 95.6266 90.0879 95.8503 90.0984C96.2552 90.1175 96.5718 90.1965 96.8002 90.3354C97.0184 90.4631 97.119 90.7081 97.1019 91.0704C97.0969 91.177 97.0678 91.3411 97.0147 91.5628C96.962 91.7739 96.8949 91.9523 96.8132 92.098C97.426 91.7851 98.0803 91.4956 98.7763 91.2294C99.4723 90.9632 100.007 90.8389 100.38 90.8565C100.667 90.87 100.904 90.9399 101.091 91.0662C101.277 91.1818 101.365 91.3674 101.353 91.6231C101.349 91.7084 101.297 91.7914 101.197 91.8721C101.107 91.9533 101.015 91.9916 100.919 91.9871C100.674 91.9756 100.188 92.0862 99.4618 92.3189C98.7353 92.5516 98.012 92.8325 97.2917 93.1617C96.5719 93.4801 96.084 93.7508 95.8278 93.9736C95.7163 94.0752 95.6232 94.1242 95.5486 94.1207C95.3781 94.1126 95.2173 94.0143 95.066 93.8256C94.904 93.6364 94.8271 93.4566 94.8351 93.2861C94.8416 93.1476 94.8801 93.0106 94.9506 92.8751C95.0109 92.7285 95.1052 92.5407 95.2334 92.3118C95.2567 92.2702 95.3092 92.1766 95.3908 92.0309C95.4729 91.8746 95.5163 91.7485 95.5208 91.6526ZM100.268 100.029C99.362 99.9867 98.9227 99.6777 98.9498 99.1023C98.985 98.3565 99.2828 97.7031 99.8431 97.1422C100.414 96.5818 101.176 96.1639 102.129 95.8884C103.082 95.6023 104.134 95.4864 105.285 95.5406C105.903 95.5697 106.46 95.7402 106.958 96.052C107.467 96.3643 107.859 96.7672 108.135 97.2607C108.421 97.7547 108.552 98.2734 108.526 98.8168C108.486 99.6586 108.236 100.549 107.775 101.488C107.325 102.428 106.722 103.211 105.967 103.838C105.212 104.454 104.376 104.74 103.459 104.697C102.831 104.667 102.31 104.499 101.898 104.191C101.496 103.883 101.204 103.491 101.024 103.012C100.844 102.534 100.766 102.028 100.791 101.496C100.817 100.952 100.948 100.435 101.185 99.9445C101.422 99.4431 101.75 99.0421 102.17 98.7415C102.601 98.4415 103.099 98.3048 103.663 98.3314C103.802 98.3379 103.96 98.3881 104.137 98.4818C104.314 98.5756 104.463 98.6948 104.584 98.8393C104.706 98.9838 104.763 99.1307 104.756 99.2799C104.748 99.4397 104.666 99.6013 104.509 99.7648C104.352 99.9176 104.154 100.042 103.915 100.137C103.686 100.233 103.46 100.276 103.236 100.265C103.087 100.258 102.926 100.39 102.753 100.659C102.591 100.929 102.502 101.219 102.488 101.528C102.47 101.9 102.543 102.272 102.707 102.643C102.872 103.003 103.077 103.189 103.322 103.201C104.014 103.233 104.604 102.962 105.09 102.387C105.587 101.812 105.965 101.163 106.223 100.438C106.492 99.7141 106.635 99.1815 106.651 98.8406C106.672 98.3931 106.574 97.9667 106.359 97.5614C106.153 97.1566 105.715 96.9384 105.044 96.9068C104.277 96.8706 103.552 96.9646 102.868 97.1887C102.196 97.4026 101.625 97.7494 101.153 98.2291C100.693 98.7093 100.398 99.3094 100.268 100.029ZM112.637 105.177C112.029 105.149 111.464 104.572 110.94 103.448C110.428 102.313 110.001 101.065 109.659 99.7032C109.328 98.3421 109.17 97.5124 109.184 97.214C109.195 96.9796 109.302 96.7444 109.505 96.5084C109.709 96.2724 109.885 96.1579 110.034 96.1649C110.119 96.1689 110.175 96.225 110.202 96.333C110.502 97.6819 110.873 99.0877 111.317 100.55C111.761 102.002 112.204 102.925 112.644 103.32C112.774 103.048 113.011 102.323 113.355 101.143C113.71 99.9635 113.936 99.1306 114.034 98.644C113.83 98.4421 113.654 98.2043 113.507 97.9304C113.371 97.6463 113.309 97.3764 113.321 97.1207C113.335 96.8224 113.416 96.5806 113.563 96.3953C113.721 96.2105 113.971 96.1262 114.312 96.1423C114.877 96.1689 115.312 96.3282 115.619 96.6203C115.937 96.9023 116.085 97.2617 116.065 97.6985C116.037 98.2739 115.723 99.5084 115.121 101.402C114.858 102.223 114.629 102.885 114.435 103.388C114.241 103.881 113.991 104.307 113.686 104.666C113.392 105.015 113.042 105.186 112.637 105.177ZM123.631 99.2245C123.593 100.045 123.395 100.954 123.038 101.952C122.692 102.95 122.188 103.802 121.524 104.507C120.872 105.203 120.099 105.529 119.204 105.487C118.66 105.461 118.234 105.324 117.926 105.074C117.618 104.814 117.473 104.482 117.492 104.077C117.507 103.757 117.631 103.501 117.865 103.309C118.109 103.107 118.397 103.009 118.727 103.014C118.717 103.462 118.783 103.764 118.925 103.92C119.068 104.066 119.251 104.144 119.475 104.154C119.762 104.168 120.091 103.884 120.46 103.304C120.84 102.713 121.172 102.018 121.455 101.22C121.739 100.411 121.894 99.7299 121.92 99.1758C121.939 98.7603 121.844 98.4087 121.633 98.1212C121.423 97.8229 120.982 97.658 120.311 97.6264C119.704 97.5977 119.188 97.7657 118.765 98.1302C118.354 98.4845 118.111 98.9856 118.038 99.6336C117.622 99.614 117.291 99.5023 117.045 99.2984C116.798 99.0839 116.682 98.8435 116.694 98.5771C116.717 98.0977 116.891 97.6788 117.218 97.3204C117.556 96.9519 118.017 96.6746 118.603 96.4887C119.199 96.3032 119.87 96.228 120.615 96.2632C121.649 96.3119 122.42 96.6152 122.927 97.173C123.435 97.7309 123.67 98.4147 123.631 99.2245ZM131.101 99.5125C130.962 100.2 130.659 101.312 130.191 102.849C130.141 103.007 130.028 103.365 129.852 103.923C129.687 104.481 129.563 104.955 129.481 105.347C129.341 105.596 129.167 105.786 128.958 105.915C128.749 106.044 128.426 106.098 127.989 106.077C127.648 106.061 127.485 105.888 127.501 105.558C127.504 105.494 127.519 105.398 127.546 105.271L127.892 104.054C128.02 103.612 128.134 103.217 128.236 102.869C128.349 102.512 128.444 102.201 128.52 101.938C128.913 100.621 129.175 99.7153 129.305 99.2196C129.318 99.1775 129.326 99.1244 129.329 99.0605C129.343 98.7622 129.21 98.5157 128.931 98.321C128.663 98.1161 128.375 98.0064 128.066 97.9919C127.416 97.9612 126.922 98.1302 126.584 98.4987C126.258 98.857 126.064 99.3444 126.003 99.9609C125.589 99.8987 125.247 99.7865 124.977 99.6243C124.718 99.4626 124.594 99.2592 124.606 99.0141C124.641 98.2576 124.974 97.6593 125.603 97.2191C126.244 96.7687 127.129 96.5702 128.258 96.6234C128.951 96.6561 129.514 96.8214 129.949 97.1196C130.384 97.407 130.693 97.7526 130.877 98.1564C131.061 98.5495 131.145 98.9272 131.128 99.2895C131.123 99.396 131.114 99.4704 131.101 99.5125ZM135.627 106.261C135.019 106.232 134.454 105.656 133.93 104.531C133.418 103.397 132.991 102.148 132.649 100.787C132.318 99.4257 132.16 98.5959 132.174 98.2976C132.185 98.0632 132.292 97.828 132.495 97.592C132.699 97.3559 132.875 97.2415 133.024 97.2485C133.109 97.2525 133.165 97.3085 133.192 97.4166C133.492 98.7655 133.863 100.171 134.307 101.634C134.751 103.086 135.194 104.009 135.634 104.403C135.764 104.132 136.002 103.406 136.345 102.226C136.7 101.047 136.926 100.214 137.024 99.7275C136.82 99.5257 136.644 99.2878 136.497 99.0139C136.361 98.7299 136.299 98.46 136.311 98.2043C136.325 97.9059 136.406 97.6641 136.553 97.4789C136.711 97.2941 136.961 97.2098 137.302 97.2259C137.867 97.2525 138.302 97.4118 138.609 97.7039C138.927 97.9859 139.075 98.3453 139.055 98.7821C139.028 99.3575 138.713 100.592 138.111 102.486C137.848 103.306 137.62 103.968 137.425 104.472C137.231 104.964 136.981 105.39 136.676 105.75C136.382 106.099 136.032 106.269 135.627 106.261ZM141.68 98.1049C141.744 97.8837 141.826 97.7167 141.928 97.6041C142.04 97.4812 142.198 97.4246 142.4 97.4341C142.634 97.4452 142.888 97.5052 143.16 97.6141C143.433 97.7124 143.567 97.8202 143.562 97.9374L142.791 100.352C142.024 102.804 141.602 104.172 141.524 104.457C141.499 104.541 141.484 104.642 141.478 104.759C141.473 104.865 141.486 104.935 141.516 104.969C141.547 104.992 141.584 105.004 141.627 105.006C141.765 105.013 141.918 104.95 142.084 104.819C142.25 104.688 142.38 104.54 142.473 104.373C142.757 104.483 142.942 104.625 143.03 104.8C143.118 104.975 143.157 105.169 143.147 105.382C143.129 105.755 142.886 106.048 142.417 106.261C141.948 106.463 141.42 106.55 140.834 106.522C140.515 106.507 140.234 106.345 139.992 106.034C139.762 105.714 139.657 105.34 139.677 104.914C139.69 104.637 140.2 102.883 141.206 99.6524L141.68 98.1049ZM145.689 99.0307C145.776 98.7572 145.895 98.5012 146.045 98.2626C146.196 98.0135 146.367 97.8934 146.559 97.9024C146.793 97.9135 147.041 97.9732 147.303 98.0817C147.565 98.1795 147.694 98.287 147.688 98.4042L146.921 100.755C146.185 103.005 145.745 104.405 145.602 104.953C145.576 105.037 145.561 105.138 145.555 105.255C145.55 105.362 145.563 105.432 145.593 105.465C145.624 105.488 145.661 105.501 145.704 105.503C145.842 105.509 145.995 105.447 146.161 105.316C146.328 105.185 146.457 105.036 146.551 104.87C146.834 104.979 147.009 105.121 147.075 105.295C147.153 105.459 147.186 105.653 147.176 105.876C147.158 106.249 146.915 106.537 146.446 106.739C145.977 106.952 145.45 107.044 144.864 107.017C144.565 107.003 144.288 106.877 144.032 106.641C143.776 106.416 143.655 106.143 143.671 105.823C143.673 105.77 143.688 105.68 143.715 105.553L145.689 99.0307ZM151.32 100.017C151.264 100.068 151.156 100.324 150.995 100.786C150.834 101.249 150.686 101.786 150.551 102.399C150.415 103.002 150.336 103.564 150.311 104.086C150.3 104.31 150.324 104.498 150.38 104.65C150.449 104.792 150.53 104.865 150.626 104.87C150.914 104.883 151.206 104.694 151.502 104.302C151.809 103.9 152.084 103.406 152.325 102.819C152.567 102.222 152.753 101.654 152.886 101.116C152.926 100.947 153.05 100.809 153.258 100.701C153.466 100.583 153.64 100.527 153.778 100.533C154.023 100.545 154.207 100.612 154.329 100.735C154.462 100.859 154.523 101.044 154.511 101.289L154.487 101.464C154.474 101.506 154.419 101.669 154.32 101.952C154.232 102.236 154.164 102.885 154.116 103.897C154.095 104.334 154.133 104.661 154.23 104.879C154.327 105.087 154.455 105.194 154.615 105.202C154.913 105.216 155.27 104.565 155.684 103.25C156.099 101.935 156.524 100.385 156.961 98.6009C157.029 98.2838 157.271 98.135 157.686 98.1546C157.921 98.1656 158.164 98.2251 158.415 98.3331C158.677 98.4309 158.806 98.5384 158.8 98.6556L158.531 99.604C158.503 99.7521 158.477 99.8523 158.453 99.9046L158.065 101.344C157.737 102.631 157.432 103.663 157.15 104.44C156.879 105.207 156.512 105.852 156.05 106.375C155.598 106.887 155.032 107.128 154.35 107.095C153.902 107.074 153.559 106.871 153.321 106.486C153.084 106.091 152.979 105.589 153.008 104.982C153.022 104.684 153.057 104.381 153.115 104.074C153.182 103.767 153.249 103.482 153.315 103.218C153.392 102.955 153.437 102.786 153.451 102.712L153.403 102.71C152.902 104.053 152.324 105.099 151.669 105.848C151.026 106.586 150.417 106.942 149.841 106.915C149.372 106.893 149.026 106.647 148.803 106.177C148.579 105.708 148.486 105.073 148.524 104.274C148.566 103.379 148.724 102.415 148.997 101.381C149.27 100.347 149.653 99.4738 150.145 98.7602C150.649 98.0365 151.242 97.6907 151.924 97.7228C152.255 97.7384 152.539 97.8212 152.778 97.9713C153.027 98.1218 153.146 98.3197 153.134 98.5647C153.125 98.7565 153.021 98.9278 152.821 99.0786C152.622 99.2294 152.325 99.4182 151.93 99.6452C151.635 99.7915 151.431 99.9154 151.32 100.017ZM164.426 105.568C164.037 105.678 163.345 105.971 162.351 106.447C161.738 106.75 161.236 106.982 160.844 107.145C160.452 107.308 160.144 107.385 159.92 107.374C159.334 107.346 159.056 107.029 159.084 106.422C159.089 106.315 159.128 106.178 159.2 106.011C159.272 105.832 159.338 105.681 159.397 105.555C159.467 105.431 159.514 105.342 159.538 105.29C159.913 104.581 160.23 103.865 160.488 103.14C160.757 102.416 160.953 101.544 161.076 100.525C160.849 100.365 160.666 100.158 160.529 99.9063C160.391 99.6436 160.291 99.3879 160.228 99.1394C160.25 98.9055 160.408 98.726 160.702 98.6011C161.008 98.466 161.331 98.4064 161.672 98.4225C162.172 98.4461 162.516 98.6278 162.703 98.9677C162.901 99.308 162.983 99.8298 162.95 100.533C162.922 101.13 162.762 101.912 162.471 102.881C162.179 103.85 161.842 104.661 161.459 105.316C161.918 105.082 162.496 104.842 163.191 104.597C163.896 104.352 164.566 104.181 165.201 104.083C165.523 102.913 165.803 101.96 166.041 101.223C166.279 100.476 166.544 99.8375 166.836 99.3066C167.128 98.7758 167.434 98.5179 167.753 98.533C168.307 98.5591 168.595 98.8075 168.615 99.2784C168.515 99.3697 168.347 99.7623 168.111 100.456C167.887 101.139 167.665 101.882 167.445 102.683C167.226 103.484 167.094 104.017 167.05 104.282C167.291 104.368 167.465 104.531 167.571 104.771C167.689 105.001 167.74 105.27 167.725 105.579C167.711 105.888 167.627 106.205 167.472 106.529C167.318 106.852 167.092 107.119 166.794 107.33C166.506 107.54 166.15 107.636 165.723 107.615C165.361 107.598 165.043 107.439 164.769 107.138C164.495 106.837 164.369 106.452 164.391 105.983C164.399 105.812 164.411 105.674 164.426 105.568ZM171.74 99.5218C171.804 99.3005 171.887 99.1336 171.988 99.0209C172.1 98.898 172.258 98.8414 172.46 98.8509C172.695 98.862 172.948 98.922 173.221 99.0309C173.494 99.1292 173.628 99.237 173.622 99.3542L172.852 101.769C172.085 104.221 171.662 105.589 171.585 105.873C171.56 105.958 171.544 106.058 171.539 106.176C171.534 106.282 171.546 106.352 171.577 106.386C171.608 106.408 171.644 106.421 171.687 106.423C171.826 106.429 171.978 106.367 172.144 106.236C172.311 106.105 172.441 105.957 172.534 105.79C172.817 105.9 173.003 106.042 173.09 106.217C173.178 106.392 173.217 106.586 173.207 106.799C173.19 107.172 172.946 107.465 172.477 107.677C172.008 107.88 171.481 107.967 170.895 107.939C170.575 107.924 170.295 107.762 170.053 107.451C169.822 107.131 169.717 106.757 169.737 106.331C169.75 106.054 170.26 104.3 171.267 101.069L171.74 99.5218ZM175.309 103.566C174.404 103.524 173.964 103.215 173.992 102.639C174.027 101.893 174.324 101.24 174.885 100.679C175.456 100.119 176.218 99.7008 177.17 99.4253C178.124 99.1392 179.176 99.0233 180.326 99.0775C180.944 99.1066 181.502 99.2771 182 99.5889C182.509 99.9012 182.901 100.304 183.176 100.798C183.463 101.292 183.593 101.81 183.568 102.354C183.528 103.195 183.278 104.086 182.817 105.025C182.367 105.965 181.764 106.748 181.008 107.375C180.253 107.991 179.417 108.277 178.501 108.234C177.873 108.204 177.352 108.035 176.939 107.728C176.537 107.42 176.246 107.028 176.066 106.549C175.885 106.071 175.808 105.565 175.833 105.033C175.859 104.489 175.99 103.972 176.226 103.481C176.464 102.98 176.792 102.579 177.212 102.278C177.643 101.978 178.14 101.842 178.705 101.868C178.844 101.875 179.001 101.925 179.179 102.019C179.356 102.113 179.505 102.232 179.626 102.376C179.748 102.521 179.805 102.668 179.798 102.817C179.79 102.977 179.708 103.138 179.551 103.302C179.394 103.454 179.196 103.579 178.956 103.674C178.728 103.77 178.501 103.813 178.278 103.802C178.128 103.795 177.967 103.926 177.794 104.196C177.632 104.466 177.544 104.755 177.529 105.064C177.512 105.437 177.585 105.809 177.749 106.18C177.914 106.54 178.118 106.726 178.363 106.738C179.056 106.77 179.645 106.499 180.132 105.924C180.629 105.349 181.006 104.7 181.265 103.975C181.534 103.251 181.676 102.718 181.692 102.377C181.713 101.93 181.616 101.504 181.4 101.098C181.195 100.694 180.757 100.475 180.086 100.444C179.319 100.408 178.593 100.502 177.91 100.726C177.238 100.94 176.666 101.286 176.195 101.766C175.735 102.246 175.439 102.846 175.309 103.566ZM187.678 108.714C187.071 108.686 186.506 108.109 185.982 106.985C185.469 105.85 185.042 104.602 184.701 103.24C184.37 101.879 184.211 101.049 184.225 100.751C184.236 100.517 184.344 100.281 184.547 100.045C184.75 99.8093 184.927 99.6948 185.076 99.7018C185.161 99.7058 185.217 99.7619 185.244 99.8699C185.544 101.219 185.915 102.625 186.359 104.087C186.803 105.539 187.245 106.462 187.686 106.857C187.816 106.585 188.053 105.859 188.397 104.68C188.752 103.5 188.978 102.667 189.075 102.181C188.871 101.979 188.696 101.741 188.548 101.467C188.412 101.183 188.35 100.913 188.362 100.658C188.376 100.359 188.457 100.117 188.605 99.9322C188.763 99.7475 189.013 99.6631 189.354 99.6792C189.918 99.7058 190.354 99.8652 190.661 100.157C190.978 100.439 191.127 100.799 191.106 101.235C191.079 101.811 190.765 103.045 190.163 104.939C189.9 105.76 189.671 106.422 189.477 106.925C189.282 107.418 189.033 107.844 188.728 108.203C188.433 108.552 188.084 108.723 187.678 108.714ZM198.094 109.189C197.124 109.144 196.46 108.845 196.102 108.294C195.754 107.744 195.599 107.069 195.637 106.27C195.673 105.503 196.201 104.156 197.221 102.228C196.993 102.068 196.811 101.862 196.673 101.61C196.536 101.347 196.436 101.092 196.373 100.843C196.395 100.609 196.553 100.43 196.847 100.305C197.152 100.17 197.475 100.11 197.816 100.126C198.264 100.147 198.594 100.286 198.806 100.541C199.018 100.797 199.115 101.127 199.096 101.532C199.08 101.873 199.005 102.216 198.871 102.562C198.738 102.898 198.542 103.305 198.285 103.784C198.002 104.348 197.787 104.818 197.642 105.196C197.496 105.573 197.413 105.964 197.394 106.369C197.372 106.827 197.441 107.183 197.6 107.436C197.77 107.679 198.015 107.808 198.335 107.823C198.739 107.842 199.103 107.71 199.427 107.426C199.75 107.132 200.008 106.749 200.201 106.277C200.395 105.795 200.504 105.293 200.529 104.771C200.552 104.27 200.523 103.868 200.441 103.566C200.371 103.253 200.263 102.927 200.119 102.589C200.1 102.546 200.061 102.453 200.004 102.312C199.947 102.159 199.906 102.013 199.88 101.873C199.856 101.723 199.847 101.573 199.854 101.423C199.866 101.157 200.164 100.947 200.748 100.793C201.333 100.628 202.021 100.522 202.814 100.474C203.607 100.415 204.307 100.4 204.914 100.429C205.18 100.441 205.307 100.597 205.292 100.895C205.282 101.119 205.197 101.339 205.037 101.556C204.878 101.762 204.697 101.865 204.494 101.866C204.239 101.833 203.824 101.803 203.249 101.776C202.833 101.756 202.448 101.775 202.093 101.833C201.738 101.891 201.489 101.954 201.347 102.022C201.649 102.41 201.871 102.907 202.014 103.511C202.167 104.117 202.234 104.622 202.215 105.027C202.187 105.613 202.029 106.235 201.742 106.894C201.465 107.554 201.022 108.115 200.413 108.578C199.805 109.03 199.032 109.233 198.094 109.189ZM204.24 97.834C204.303 97.869 204.342 97.9402 204.358 98.0478C204.386 98.1452 204.397 98.2365 204.393 98.3218C204.384 98.5135 204.287 98.6478 204.102 98.7245C203.917 98.8012 203.713 98.8343 203.489 98.8237C203.308 98.8152 203.129 98.7481 202.954 98.6223C202.779 98.4859 202.543 98.2719 202.247 97.9803C201.839 97.5767 201.475 97.2658 201.154 97.0478C200.822 96.8293 200.444 96.71 200.017 96.6899C199.676 96.6739 199.327 96.7215 198.969 96.8327C198.602 96.9329 198.413 97.0948 198.402 97.3186C198.394 97.489 198.515 97.6442 198.764 97.7842C199.015 97.9134 199.309 98.018 199.647 98.098C199.974 98.1669 200.25 98.2066 200.474 98.2171L201.242 98.2373C201.381 98.2332 201.557 98.2361 201.77 98.2462C202.004 98.2572 202.119 98.3267 202.113 98.4545C202.104 98.6463 202 98.8069 201.802 98.9364C201.593 99.0654 201.353 99.1609 201.083 99.2229C200.803 99.2844 200.561 99.3104 200.359 99.3009C199.741 99.2718 199.142 99.1741 198.563 99.008C197.972 98.8414 197.497 98.6161 197.137 98.3321C196.766 98.0477 196.589 97.719 196.607 97.3461C196.626 96.9412 196.84 96.5882 197.249 96.2872C197.648 95.9856 198.128 95.7626 198.69 95.6183C199.242 95.4627 199.731 95.395 200.158 95.4151C200.839 95.4473 201.415 95.5918 201.883 95.8488C202.352 96.0952 202.803 96.4902 203.237 97.0339C203.398 97.2337 203.572 97.4021 203.758 97.539C203.943 97.6759 204.104 97.7742 204.24 97.834ZM211.284 103.356C211.245 104.176 211.048 105.085 210.691 106.083C210.345 107.081 209.84 107.933 209.177 108.638C208.525 109.334 207.751 109.66 206.856 109.618C206.313 109.593 205.887 109.455 205.578 109.206C205.27 108.945 205.126 108.613 205.145 108.208C205.16 107.888 205.284 107.633 205.517 107.441C205.762 107.239 206.049 107.14 206.38 107.145C206.37 107.593 206.436 107.895 206.578 108.051C206.72 108.197 206.904 108.275 207.127 108.286C207.415 108.299 207.743 108.016 208.112 107.435C208.493 106.844 208.824 106.15 209.108 105.352C209.391 104.543 209.546 103.861 209.572 103.307C209.592 102.892 209.496 102.54 209.286 102.252C209.076 101.954 208.635 101.789 207.964 101.758C207.356 101.729 206.841 101.897 206.418 102.261C206.006 102.616 205.764 103.117 205.691 103.765C205.275 103.745 204.944 103.634 204.697 103.43C204.451 103.215 204.334 102.975 204.347 102.708C204.369 102.229 204.544 101.81 204.871 101.452C205.208 101.083 205.67 100.806 206.255 100.62C206.851 100.434 207.522 100.359 208.268 100.394C209.302 100.443 210.072 100.746 210.58 101.304C211.087 101.862 211.322 102.546 211.284 103.356ZM214.193 101.523C214.257 101.301 214.339 101.134 214.441 101.022C214.553 100.899 214.711 100.842 214.913 100.852C215.148 100.863 215.401 100.923 215.674 101.032C215.947 101.13 216.08 101.238 216.075 101.355L215.304 103.769C214.537 106.221 214.115 107.59 214.038 107.874C214.012 107.959 213.997 108.059 213.991 108.177C213.986 108.283 213.999 108.353 214.03 108.387C214.061 108.409 214.097 108.422 214.14 108.424C214.278 108.43 214.431 108.368 214.597 108.237C214.764 108.106 214.893 107.957 214.987 107.791C215.27 107.9 215.455 108.043 215.543 108.218C215.631 108.393 215.67 108.587 215.66 108.8C215.642 109.173 215.399 109.466 214.93 109.678C214.461 109.881 213.934 109.968 213.348 109.94C213.028 109.925 212.747 109.762 212.506 109.452C212.275 109.131 212.17 108.758 212.19 108.332C212.203 108.055 212.713 106.301 213.72 103.07L214.193 101.523ZM223.962 109.976C223.822 110.226 223.647 110.415 223.438 110.544C223.229 110.673 222.906 110.727 222.469 110.707C222.129 110.69 221.966 110.517 221.981 110.187C221.984 110.123 222 110.028 222.027 109.901L222.373 108.684C222.461 108.4 222.543 108.131 222.619 107.878C222.695 107.626 222.764 107.399 222.827 107.199C223.102 106.347 223.305 105.663 223.436 105.146C223.579 104.619 223.661 104.126 223.682 103.668C223.719 102.89 223.226 102.477 222.203 102.429C221.564 102.399 220.935 102.476 220.318 102.66C219.712 102.835 219.256 103.096 218.951 103.445C219.323 103.494 219.647 103.632 219.925 103.859C220.203 104.075 220.335 104.343 220.32 104.663C220.315 104.758 220.294 104.864 220.257 104.98L219.808 106.336C219.487 107.272 219.238 108.023 219.061 108.592C218.885 109.16 218.783 109.63 218.754 110.003C218.567 110.122 218.341 110.176 218.074 110.163C217.776 110.149 217.55 110.074 217.396 109.939C217.252 109.815 217.185 109.651 217.195 109.449C217.225 108.81 217.362 108.058 217.605 107.194C217.849 106.329 218.169 105.437 218.565 104.516C218.462 104.436 218.285 104.337 218.034 104.219C217.773 104.089 217.581 103.973 217.458 103.871C217.346 103.759 217.294 103.612 217.302 103.431C217.324 102.962 217.568 102.541 218.035 102.168C218.512 101.785 219.134 101.494 219.902 101.295C220.669 101.096 221.479 101.017 222.332 101.057C222.896 101.084 223.419 101.215 223.899 101.452C224.39 101.678 224.775 102.005 225.054 102.435C225.344 102.854 225.475 103.363 225.446 103.959C225.42 104.513 225.323 105.112 225.154 105.755C224.996 106.389 224.778 107.158 224.5 108.063C224.249 108.863 224.069 109.501 223.962 109.976ZM226.341 98.8757C226.403 98.9106 226.442 98.9819 226.459 99.0895C226.486 99.1869 226.498 99.2782 226.494 99.3634C226.485 99.5552 226.388 99.6894 226.203 99.7661C226.017 99.8428 225.813 99.8759 225.589 99.8654C225.408 99.8568 225.23 99.7897 225.054 99.664C224.879 99.5276 224.643 99.3136 224.348 99.022C223.939 98.6183 223.575 98.3075 223.254 98.0895C222.923 97.871 222.544 97.7517 222.118 97.7316C221.777 97.7155 221.428 97.7631 221.07 97.8744C220.702 97.9745 220.513 98.1365 220.502 98.3602C220.494 98.5307 220.615 98.6859 220.865 98.8258C221.115 98.9551 221.409 99.0597 221.747 99.1397C222.075 99.2085 222.351 99.2482 222.574 99.2588L223.342 99.2789C223.481 99.2748 223.657 99.2778 223.871 99.2878C224.105 99.2989 224.219 99.3683 224.213 99.4962C224.204 99.688 224.1 99.8486 223.902 99.9781C223.693 100.107 223.454 100.203 223.184 100.265C222.903 100.326 222.662 100.352 222.459 100.343C221.841 100.313 221.243 100.216 220.663 100.05C220.073 99.883 219.598 99.6577 219.237 99.3738C218.866 99.0893 218.69 98.7606 218.707 98.3877C218.726 97.9828 218.94 97.6299 219.35 97.3288C219.748 97.0272 220.229 96.8043 220.791 96.6599C221.343 96.5044 221.832 96.4367 222.258 96.4568C222.94 96.4889 223.515 96.6335 223.984 96.8905C224.452 97.1368 224.904 97.5318 225.337 98.0755C225.499 98.2754 225.672 98.4437 225.858 98.5806C226.044 98.7175 226.205 98.8159 226.341 98.8757ZM224.028 94.0654C224.031 94.0122 224 93.984 223.936 93.981C223.829 93.976 223.693 94.0336 223.527 94.154C223.351 94.2738 223.241 94.3327 223.199 94.3307C223.092 94.3257 222.995 94.2303 222.908 94.0447C222.81 93.8585 222.765 93.6855 222.772 93.5257C222.778 93.3979 222.875 93.2583 223.064 93.107C223.242 92.9552 223.456 92.8265 223.707 92.7208C223.958 92.6152 224.179 92.5669 224.371 92.5759C224.743 92.5935 225.049 92.6773 225.288 92.8274C225.516 92.9769 225.622 93.2222 225.605 93.5632C225.602 93.6377 225.575 93.7646 225.523 93.9437C225.472 94.1228 225.411 94.2855 225.34 94.4316C225.866 94.1574 226.476 93.8925 227.172 93.637C227.878 93.3713 228.391 93.246 228.711 93.261C228.967 93.2731 229.182 93.342 229.358 93.4677C229.534 93.5828 229.616 93.7629 229.605 94.0079C229.602 94.0719 229.55 94.1495 229.45 94.2409C229.36 94.3328 229.267 94.3765 229.171 94.3719C228.969 94.3624 228.521 94.4694 227.827 94.693C227.144 94.9064 226.47 95.1576 225.805 95.4466C225.129 95.7351 224.685 95.9812 224.473 96.1847C224.341 96.2639 224.216 96.3008 224.099 96.2953C223.939 96.2877 223.789 96.1952 223.648 96.0177C223.496 95.8397 223.424 95.6601 223.433 95.479C223.435 95.4364 223.448 95.3943 223.471 95.3526C223.543 95.1852 223.614 95.039 223.684 94.9142C223.908 94.4549 224.023 94.172 224.028 94.0654ZM231.243 108.717C230.853 108.827 230.161 109.12 229.167 109.597C228.555 109.899 228.053 110.131 227.661 110.294C227.268 110.458 226.96 110.534 226.737 110.523C226.151 110.496 225.872 110.178 225.901 109.571C225.906 109.464 225.944 109.327 226.016 109.16C226.089 108.982 226.154 108.83 226.214 108.705C226.284 108.58 226.331 108.491 226.354 108.439C226.73 107.73 227.046 107.014 227.305 106.289C227.574 105.565 227.77 104.693 227.892 103.674C227.665 103.514 227.483 103.308 227.345 103.056C227.208 102.793 227.108 102.537 227.045 102.289C227.066 102.055 227.224 101.875 227.519 101.75C227.824 101.615 228.147 101.556 228.488 101.572C228.989 101.595 229.333 101.777 229.52 102.117C229.717 102.457 229.799 102.979 229.766 103.682C229.738 104.279 229.578 105.062 229.287 106.03C228.996 106.999 228.659 107.811 228.275 108.465C228.735 108.231 229.312 107.991 230.007 107.746C230.713 107.502 231.383 107.33 232.018 107.232C232.34 106.062 232.619 105.109 232.857 104.373C233.095 103.626 233.36 102.987 233.652 102.456C233.944 101.925 234.25 101.667 234.57 101.682C235.124 101.708 235.411 101.957 235.432 102.428C235.331 102.519 235.163 102.911 234.928 103.605C234.703 104.289 234.481 105.031 234.262 105.832C234.043 106.634 233.911 107.167 233.866 107.431C234.108 107.518 234.282 107.681 234.388 107.921C234.505 108.15 234.556 108.42 234.542 108.729C234.527 109.038 234.443 109.354 234.289 109.678C234.135 110.002 233.909 110.269 233.61 110.479C233.323 110.689 232.966 110.785 232.54 110.765C232.178 110.748 231.859 110.588 231.585 110.287C231.311 109.986 231.185 109.601 231.207 109.132C231.215 108.962 231.227 108.823 231.243 108.717ZM241.357 109.194C240.967 109.304 240.275 109.597 239.281 110.073C238.669 110.375 238.166 110.608 237.774 110.771C237.382 110.934 237.074 111.01 236.85 111C236.264 110.972 235.986 110.655 236.014 110.047C236.019 109.941 236.058 109.804 236.13 109.636C236.202 109.458 236.268 109.307 236.328 109.181C236.397 109.056 236.444 108.968 236.468 108.916C236.843 108.207 237.16 107.491 237.418 106.766C237.688 106.042 237.883 105.17 238.006 104.151C237.779 103.991 237.596 103.784 237.459 103.532C237.322 103.27 237.222 103.014 237.159 102.765C237.18 102.531 237.338 102.352 237.632 102.227C237.938 102.092 238.261 102.032 238.602 102.048C239.103 102.072 239.446 102.254 239.633 102.594C239.831 102.934 239.913 103.456 239.88 104.159C239.852 104.756 239.692 105.538 239.401 106.507C239.11 107.476 238.772 108.287 238.389 108.942C238.849 108.707 239.426 108.468 240.121 108.223C240.826 107.978 241.497 107.807 242.131 107.709C242.453 106.539 242.733 105.586 242.971 104.849C243.209 104.102 243.474 103.463 243.766 102.933C244.058 102.402 244.364 102.144 244.683 102.159C245.237 102.185 245.525 102.433 245.545 102.904C245.445 102.996 245.277 103.388 245.041 104.082C244.817 104.765 244.595 105.508 244.376 106.309C244.156 107.11 244.024 107.643 243.98 107.908C244.222 107.994 244.395 108.157 244.502 108.397C244.619 108.627 244.67 108.896 244.656 109.205C244.641 109.514 244.557 109.831 244.403 110.155C244.249 110.478 244.022 110.745 243.724 110.955C243.437 111.166 243.08 111.261 242.654 111.241C242.291 111.224 241.973 111.065 241.699 110.764C241.425 110.463 241.299 110.078 241.321 109.609C241.329 109.438 241.341 109.3 241.357 109.194Z" fill="#18283E"/>
<path d="M76.2053 135.56C75.4807 135.526 74.8657 135.321 74.3602 134.945C73.8547 134.568 73.4826 134.081 73.2438 133.482C73.0056 132.873 72.9033 132.212 72.9369 131.498C72.955 131.114 73.0099 130.743 73.1016 130.384C73.5148 128.642 74.199 127.264 75.1544 126.252C76.1098 125.24 77.392 124.772 79.0009 124.848C80.0024 124.895 80.7492 125.251 81.2411 125.915C81.7335 126.568 81.9509 127.507 81.8931 128.732C81.8404 129.851 81.5966 130.945 81.1618 132.014C80.7275 133.072 80.0883 133.944 79.2444 134.63C78.4116 135.306 77.3986 135.616 76.2053 135.56ZM76.2289 134.04C76.8682 134.07 77.4574 133.804 77.9964 133.242C78.5461 132.68 78.9806 131.959 79.2998 131.077C79.6297 130.195 79.8155 129.313 79.8572 128.428C79.914 127.224 79.4416 126.599 78.44 126.551C77.854 126.524 77.297 126.786 76.7691 127.338C76.2417 127.879 75.809 128.563 75.471 129.391C75.1441 130.208 74.9636 130.979 74.9295 131.704C74.8938 132.46 74.9841 133.036 75.2004 133.43C75.4279 133.815 75.7707 134.018 76.2289 134.04ZM86.0142 136.055C85.311 136.021 84.6932 135.875 84.1609 135.615C83.628 135.365 83.2217 135.037 82.942 134.628C82.6729 134.221 82.5499 133.772 82.573 133.281C82.6112 132.472 82.894 131.796 83.4214 131.255C83.9488 130.714 84.6556 130.331 85.5419 130.106C85.3226 129.999 85.1229 129.819 84.9427 129.565C84.7731 129.311 84.6413 129.049 84.5473 128.777C84.4533 128.506 84.4106 128.28 84.4191 128.099C84.4508 127.427 84.675 126.861 85.0919 126.4C85.5092 125.929 86.0486 125.586 86.7101 125.372C87.3721 125.146 88.0867 125.052 88.8538 125.088C89.8661 125.136 90.6401 125.365 91.1761 125.774C91.7232 126.174 91.9802 126.725 91.9471 127.428C91.9164 128.078 91.6914 128.66 91.2721 129.175C90.8532 129.678 90.2951 130.079 89.5976 130.377C90.6892 131.005 91.2152 131.74 91.1755 132.582C91.059 135.054 89.3385 136.211 86.0142 136.055ZM88.6674 126.665C88.1133 126.639 87.6217 126.76 87.1926 127.028C86.7747 127.286 86.5539 127.665 86.5303 128.166C86.5047 128.71 86.9696 129.153 87.9252 129.497C88.4233 129.35 88.8405 129.108 89.1767 128.771C89.5135 128.424 89.6911 128.054 89.7097 127.659C89.7223 127.393 89.6369 127.165 89.4537 126.975C89.2704 126.784 89.0083 126.681 88.6674 126.665ZM88.8848 132.586C88.8993 132.277 88.78 131.978 88.5267 131.688C88.2733 131.398 87.9003 131.157 87.4076 130.963C86.6451 131.055 86.0343 131.325 85.5754 131.773C85.1164 132.221 84.8724 132.754 84.8432 133.372C84.8287 133.681 84.9663 133.934 85.2561 134.129C85.5464 134.313 85.9099 134.416 86.3468 134.436C87.05 134.47 87.6387 134.327 88.113 134.007C88.5984 133.678 88.8556 133.204 88.8848 132.586ZM92.8375 136.585C92.5391 136.57 92.3075 136.501 92.1425 136.376C91.9776 136.25 91.9004 136.076 91.9109 135.852C91.92 135.66 92.9982 134.307 95.1457 131.792C96.2542 130.477 97.4288 129.006 98.6696 127.377C99.1594 126.727 99.5232 126.259 99.761 125.971C100.009 125.684 100.233 125.47 100.432 125.33C100.641 125.19 100.853 125.125 101.066 125.135C101.343 125.148 101.547 125.227 101.679 125.372C101.822 125.518 101.888 125.697 101.878 125.91C101.869 126.113 101.801 126.297 101.676 126.462L100.345 128.193C100.072 128.543 99.7266 128.965 99.3083 129.457C97.6547 131.462 96.2613 133.158 95.128 134.546C94.5611 135.246 94.1042 135.763 93.7573 136.099C93.4211 136.436 93.1145 136.598 92.8375 136.585ZM101.97 135.894C101.975 135.777 101.996 135.666 102.033 135.56L104.188 128.582C103.868 128.802 103.506 129.015 103.101 129.22C102.708 129.415 102.452 129.509 102.335 129.504C102.186 129.497 102.018 129.441 101.83 129.336C101.654 129.232 101.499 129.112 101.367 128.978C101.245 128.844 101.186 128.734 101.19 128.649C101.191 128.617 101.198 128.596 101.209 128.586C101.322 128.452 101.61 128.236 102.072 127.938C102.546 127.629 103.157 127.252 103.904 126.807C104.629 126.371 105.058 126.108 105.19 126.019C105.289 125.959 105.397 125.932 105.514 125.938C105.76 125.949 105.984 126.061 106.187 126.274C106.402 126.487 106.502 126.726 106.49 126.993C106.489 127.004 106.493 127.036 106.501 127.089C106.521 127.133 106.528 127.192 106.525 127.267C106.524 127.288 106.51 127.362 106.482 127.489C106.281 128.366 105.934 129.615 105.441 131.236C104.959 132.847 104.686 133.769 104.622 134.001C104.345 134.885 104.187 135.406 104.148 135.564C104.045 135.933 103.898 136.214 103.707 136.408C103.527 136.603 103.24 136.691 102.846 136.672C102.526 136.657 102.294 136.593 102.15 136.479C102.017 136.366 101.957 136.171 101.97 135.894ZM108.821 136.217C108.827 136.1 108.848 135.989 108.885 135.884L111.04 128.905C110.72 129.125 110.358 129.338 109.953 129.543C109.559 129.738 109.304 129.833 109.187 129.827C109.038 129.82 108.869 129.764 108.682 129.659C108.505 129.555 108.351 129.435 108.218 129.301C108.097 129.167 108.038 129.057 108.042 128.972C108.043 128.94 108.05 128.919 108.061 128.909C108.174 128.775 108.462 128.559 108.924 128.261C109.398 127.952 110.008 127.575 110.755 127.13C111.481 126.694 111.91 126.431 112.042 126.342C112.141 126.282 112.249 126.255 112.366 126.261C112.611 126.272 112.836 126.384 113.039 126.597C113.253 126.81 113.354 127.05 113.342 127.316C113.341 127.327 113.345 127.359 113.353 127.413C113.372 127.456 113.38 127.515 113.377 127.59C113.376 127.611 113.362 127.685 113.334 127.812C113.133 128.689 112.785 129.938 112.293 131.559C111.811 133.17 111.538 134.092 111.473 134.324C111.197 135.208 111.039 135.729 110.999 135.887C110.897 136.256 110.75 136.537 110.559 136.731C110.379 136.926 110.092 137.014 109.698 136.995C109.378 136.98 109.146 136.916 109.002 136.802C108.869 136.689 108.808 136.494 108.821 136.217ZM114.47 137.604C114.171 137.59 113.94 137.521 113.775 137.395C113.61 137.27 113.533 137.096 113.543 136.872C113.552 136.68 114.63 135.327 116.778 132.812C117.886 131.497 119.061 130.026 120.302 128.397C120.792 127.747 121.155 127.279 121.393 126.991C121.642 126.703 121.865 126.49 122.064 126.35C122.274 126.21 122.485 126.145 122.698 126.155C122.975 126.168 123.18 126.247 123.312 126.392C123.454 126.538 123.52 126.717 123.51 126.93C123.501 127.133 123.433 127.317 123.308 127.481L121.977 129.213C121.704 129.563 121.359 129.984 120.941 130.477C119.287 132.482 117.894 134.178 116.76 135.566C116.193 136.265 115.736 136.783 115.39 137.119C115.053 137.456 114.747 137.617 114.47 137.604ZM128.469 129.487C128.481 129.231 128.379 129.018 128.163 128.848C127.958 128.667 127.685 128.569 127.344 128.553C126.992 128.536 126.676 128.564 126.395 128.636C126.124 128.709 125.862 128.841 125.607 129.031C125.464 129.131 125.363 129.233 125.305 129.338C125.246 129.442 125.192 129.572 125.142 129.73C125.081 129.898 125.006 130.018 124.917 130.088C124.839 130.159 124.682 130.189 124.448 130.178C124.086 130.161 123.796 130.067 123.58 129.897C123.375 129.727 123.279 129.498 123.292 129.211C123.309 128.859 123.518 128.506 123.919 128.151C124.32 127.796 124.846 127.511 125.497 127.296C126.148 127.081 126.835 126.991 127.56 127.025C128.178 127.054 128.722 127.181 129.192 127.406C129.673 127.621 130.039 127.906 130.289 128.259C130.55 128.613 130.67 129.003 130.65 129.429C130.627 129.92 130.411 130.427 130.002 130.953C129.604 131.468 129.121 131.963 128.554 132.438C127.998 132.914 127.294 133.468 126.441 134.1C126.297 134.211 126.048 134.402 125.694 134.674C125.339 134.945 125.039 135.188 124.794 135.4C124.55 135.602 124.349 135.79 124.191 135.964C124.687 135.87 125.397 135.76 126.321 135.632C127.246 135.505 127.986 135.428 128.543 135.401C128.618 135.394 128.719 135.393 128.847 135.399C129.049 135.409 129.217 135.47 129.351 135.583C129.485 135.685 129.55 135.785 129.545 135.881C129.532 136.168 129.416 136.467 129.198 136.777C128.981 137.077 128.627 137.231 128.136 137.24C127.43 137.249 126.509 137.307 125.372 137.414C124.825 137.473 124.385 137.511 124.053 137.528C123.721 137.555 123.379 137.56 123.028 137.543C122.601 137.523 122.275 137.428 122.048 137.257C121.821 137.086 121.715 136.841 121.73 136.521C121.747 136.17 121.869 135.844 122.097 135.545C122.325 135.236 122.645 134.904 123.057 134.549C123.691 134.013 124.6 133.287 125.786 132.372C126.772 131.617 127.461 131.046 127.853 130.659C128.245 130.272 128.45 129.881 128.469 129.487ZM134.718 138.319C133.994 138.285 133.379 138.079 132.873 137.703C132.368 137.327 131.996 136.84 131.757 136.241C131.519 135.632 131.416 134.97 131.45 134.256C131.468 133.873 131.523 133.502 131.615 133.143C132.028 131.4 132.712 130.023 133.668 129.011C134.623 127.999 135.905 127.531 137.514 127.607C138.516 127.654 139.262 128.009 139.754 128.673C140.247 129.327 140.464 130.266 140.406 131.491C140.353 132.61 140.11 133.704 139.675 134.772C139.241 135.83 138.601 136.703 137.758 137.389C136.925 138.065 135.912 138.375 134.718 138.319ZM134.742 136.798C135.381 136.828 135.97 136.563 136.51 136.001C137.059 135.439 137.494 134.718 137.813 133.836C138.143 132.954 138.329 132.071 138.37 131.187C138.427 129.983 137.955 129.357 136.953 129.31C136.367 129.282 135.81 129.545 135.282 130.096C134.755 130.637 134.322 131.322 133.984 132.149C133.657 132.967 133.477 133.738 133.443 134.462C133.407 135.219 133.497 135.795 133.714 136.189C133.941 136.574 134.284 136.777 134.742 136.798ZM147.791 130.398C147.803 130.142 147.701 129.929 147.485 129.759C147.28 129.578 147.007 129.48 146.666 129.464C146.314 129.447 145.998 129.475 145.717 129.547C145.447 129.62 145.184 129.752 144.93 129.942C144.786 130.042 144.685 130.144 144.627 130.249C144.569 130.353 144.514 130.483 144.464 130.641C144.403 130.809 144.328 130.929 144.239 130.999C144.161 131.07 144.005 131.1 143.77 131.089C143.408 131.072 143.119 130.978 142.903 130.808C142.697 130.638 142.601 130.409 142.615 130.122C142.631 129.77 142.84 129.417 143.241 129.062C143.642 128.707 144.168 128.422 144.819 128.207C145.47 127.992 146.158 127.902 146.882 127.936C147.5 127.965 148.044 128.092 148.514 128.317C148.995 128.532 149.361 128.817 149.611 129.17C149.872 129.524 149.993 129.914 149.972 130.34C149.949 130.831 149.733 131.338 149.324 131.864C148.926 132.379 148.443 132.874 147.876 133.349C147.32 133.825 146.616 134.379 145.764 135.011C145.62 135.122 145.37 135.313 145.016 135.585C144.661 135.856 144.362 136.099 144.117 136.311C143.872 136.513 143.671 136.701 143.513 136.875C144.009 136.781 144.719 136.671 145.643 136.543C146.568 136.416 147.308 136.339 147.865 136.312C147.94 136.305 148.041 136.304 148.169 136.31C148.372 136.32 148.54 136.381 148.673 136.494C148.807 136.596 148.872 136.696 148.867 136.792C148.854 137.079 148.738 137.378 148.521 137.688C148.304 137.988 147.949 138.142 147.458 138.151C146.753 138.16 145.831 138.218 144.695 138.325C144.147 138.384 143.708 138.422 143.376 138.439C143.043 138.466 142.701 138.471 142.35 138.454C141.924 138.434 141.597 138.339 141.37 138.168C141.143 137.997 141.037 137.752 141.053 137.432C141.069 137.081 141.191 136.755 141.419 136.456C141.647 136.147 141.967 135.815 142.379 135.46C143.013 134.924 143.923 134.198 145.108 133.283C146.094 132.528 146.783 131.957 147.175 131.57C147.567 131.183 147.773 130.792 147.791 130.398ZM158.118 135.306C158.079 136.126 157.806 136.829 157.298 137.413C156.8 137.998 156.166 138.433 155.394 138.717C154.623 139.001 153.827 139.124 153.006 139.085C152.527 139.062 152.062 138.96 151.611 138.779C151.161 138.598 150.798 138.362 150.523 138.071C150.249 137.77 150.12 137.449 150.136 137.108C150.148 136.863 150.231 136.68 150.386 136.559C150.542 136.438 150.752 136.384 151.019 136.396C151.168 136.403 151.305 136.447 151.429 136.528C151.564 136.609 151.734 136.734 151.94 136.904C152.187 137.108 152.403 137.268 152.59 137.383C152.788 137.489 153.009 137.547 153.254 137.559C153.798 137.585 154.288 137.49 154.725 137.276C155.173 137.062 155.523 136.78 155.775 136.428C156.037 136.067 156.177 135.705 156.194 135.343C156.211 134.981 156.087 134.665 155.822 134.396C155.558 134.117 155.182 133.928 154.696 133.831C154.53 133.94 154.383 134.008 154.254 134.034C154.135 134.061 153.99 134.07 153.82 134.062C153.553 134.049 153.312 133.968 153.094 133.819C152.877 133.67 152.774 133.489 152.784 133.276C152.795 133.031 152.932 132.851 153.194 132.735C153.456 132.608 153.879 132.468 154.463 132.314C155.197 132.135 155.773 131.938 156.189 131.723C156.605 131.497 156.84 131.155 156.894 130.699C156.905 130.464 156.796 130.272 156.568 130.123C156.341 129.963 156.057 129.874 155.716 129.858C155.013 129.825 154.396 129.994 153.866 130.364C153.712 130.463 153.6 130.57 153.531 130.684C153.461 130.799 153.407 130.924 153.369 131.061C153.307 131.229 153.232 131.348 153.144 131.419C153.065 131.49 152.909 131.52 152.675 131.509C152.334 131.493 152.087 131.406 151.934 131.25C151.781 131.093 151.712 130.86 151.727 130.551C151.743 130.2 151.958 129.847 152.369 129.492C152.792 129.139 153.329 128.854 153.979 128.639C154.641 128.425 155.329 128.334 156.042 128.368C156.937 128.41 157.626 128.646 158.107 129.074C158.589 129.503 158.814 130.063 158.781 130.756C158.758 131.246 158.522 131.715 158.074 132.164C157.637 132.603 157.082 132.923 156.411 133.127C156.992 133.261 157.427 133.532 157.718 133.941C158.008 134.35 158.142 134.805 158.118 135.306Z" fill="#748193"/>
<path d="M206.232 226.298C210.041 222.826 213.717 219.221 217.26 215.483C220.803 211.746 224.213 207.876 227.475 203.893C230.738 199.91 233.859 195.814 236.801 191.596C238.211 189.571 239.588 187.418 240.167 184.988C240.631 183.038 240.512 180.914 239.615 179.099C238.717 177.284 236.984 176.02 234.944 175.764C232.68 175.485 230.381 176.353 228.425 177.416C226.374 178.528 224.461 179.951 222.633 181.406C220.804 182.86 219.05 184.437 217.398 186.099C214.052 189.454 211.075 193.172 208.439 197.105C205.639 201.283 203.045 205.722 201.484 210.523C201.01 211.988 199.854 215.101 201.961 215.904C203.083 216.335 204.367 215.566 205.352 215.101C206.561 214.534 207.745 213.919 208.912 213.27C211.305 211.942 213.637 210.505 215.975 209.088C218.313 207.671 220.841 206.156 223.268 204.69C224.45 203.976 225.632 203.268 226.808 202.553L226.29 201.984C224.867 204.56 223.697 207.274 222.795 210.073C222.678 210.427 223.045 210.67 223.35 210.545C226.524 209.28 229.686 207.995 232.859 206.736L232.405 206.091C231.37 207.058 231.662 208.765 232.69 209.63C233.986 210.721 235.891 210.186 237.054 209.179C237.213 209.04 237.247 208.736 237.082 208.589C236.496 208.063 235.457 208.253 235.246 209.074C235.011 209.966 236.031 210.591 236.796 210.289C237.317 210.081 236.909 209.305 236.394 209.519C236.258 209.573 236.027 209.409 236.068 209.252C236.107 209.114 236.368 209.073 236.464 209.158L236.492 208.568C235.668 209.273 234.284 209.765 233.3 209.075C232.574 208.569 232.253 207.352 232.948 206.694C233.288 206.372 232.9 205.882 232.494 206.049C229.332 207.327 226.152 208.585 222.99 209.864L223.546 210.335C224.412 207.593 225.56 204.945 226.966 202.434C227.148 202.111 226.811 201.644 226.449 201.866C221.782 204.66 217.139 207.489 212.485 210.291C210.285 211.608 208.072 212.912 205.774 214.045C205.257 214.3 204.735 214.541 204.212 214.782C203.689 215.023 202.968 215.394 202.352 215.219C201.401 214.955 201.488 213.677 201.637 212.92C201.863 211.782 202.255 210.652 202.652 209.562C203.086 208.374 203.58 207.202 204.125 206.059C205.186 203.838 206.416 201.704 207.722 199.621C210.128 195.777 212.838 192.113 215.891 188.758C218.945 185.402 222.315 182.36 226.036 179.78C227.883 178.499 229.846 177.277 232.051 176.71C234.108 176.183 236.391 176.357 237.956 177.932C239.319 179.304 239.854 181.335 239.758 183.229C239.647 185.588 238.528 187.78 237.274 189.733C235.947 191.808 234.466 193.79 233.005 195.773C231.543 197.756 230.044 199.704 228.511 201.637C222.37 209.369 215.684 216.664 208.517 223.458C207.642 224.286 206.76 225.108 205.871 225.923C205.614 226.163 205.981 226.559 206.237 226.325L206.232 226.298Z" fill="#231F20"/>
<path d="M254.356 184.31C249.929 190.602 245.521 196.908 241.12 203.221C236.718 209.535 232.352 215.803 227.965 222.091C225.643 225.421 223.359 228.799 220.519 231.713L221.196 232.29C223.709 227.853 226.572 223.612 229.768 219.639C232.963 215.666 236.458 211.966 240.237 208.559C242.373 206.634 244.598 204.8 246.891 203.069C247.242 202.806 246.814 202.175 246.443 202.43C243.772 204.289 241.558 206.735 240.015 209.611C239.848 209.915 240.081 210.324 240.45 210.235C242.115 209.862 243.624 208.991 244.785 207.737L244.133 207.62C244.329 208.114 244.531 208.615 244.734 209.109C244.811 209.299 245.118 209.406 245.296 209.282C245.804 208.934 246.319 208.586 246.833 208.245C247.127 208.053 247.107 207.634 246.768 207.505C245.797 207.121 245.479 208.514 245.935 209.126C246.247 209.546 246.803 209.585 247.263 209.395C247.832 209.156 248.21 208.609 248.488 208.078L247.828 208.133C248.737 209.132 250.453 208.781 250.982 207.571L250.492 207.82C254.345 208.62 258.313 208.7 262.191 207.98C262.74 207.88 262.539 207.074 262.005 207.148C258.998 207.544 256.173 209.157 254.313 211.56L255.131 211.95C256.364 209.173 257.318 206.283 257.989 203.32C258.057 203.004 257.724 202.583 257.388 202.813C256.523 203.41 256.791 204.625 257.646 205.096C258.17 205.387 258.798 205.436 259.379 205.517C260.111 205.618 260.844 205.712 261.577 205.8C264.516 206.144 267.467 206.37 270.424 206.463C272.121 206.516 273.82 206.537 275.515 206.51C276.08 206.504 276.128 205.616 275.557 205.622C272.3 205.675 269.038 205.581 265.789 205.341C264.181 205.219 262.568 205.063 260.963 204.874C260.184 204.778 259.37 204.726 258.607 204.557C258.331 204.498 257.991 204.402 257.809 204.168C257.703 204.03 257.599 203.693 257.778 203.569L257.177 203.062C256.5 206.025 255.514 208.907 254.254 211.677C254.025 212.177 254.776 212.445 255.073 212.067C256.831 209.833 259.364 208.372 262.184 207.993L261.997 207.161C258.285 207.869 254.44 207.874 250.732 207.095C250.508 207.051 250.332 207.135 250.242 207.344C249.944 208.02 248.918 208.111 248.451 207.585C248.281 207.391 247.922 207.4 247.791 207.64C247.639 207.912 247.06 208.92 246.64 208.681C246.581 208.652 246.542 208.504 246.539 208.411C246.542 208.364 246.565 208.293 246.56 208.252C246.565 208.299 246.342 208.222 246.519 208.284L246.454 207.544C245.946 207.891 245.426 208.226 244.906 208.56L245.468 208.732C245.273 208.232 245.077 207.738 244.875 207.237C244.78 207 244.391 206.935 244.223 207.12C243.159 208.278 241.8 209.071 240.269 209.43L240.705 210.055C242.156 207.301 244.248 204.91 246.802 203.124L246.354 202.486C242.239 205.539 238.387 208.943 234.826 212.626C231.266 216.31 228.018 220.267 225.085 224.452C223.419 226.83 221.869 229.28 220.429 231.802C220.19 232.222 220.735 232.76 221.105 232.379C223.596 229.833 225.621 226.881 227.638 223.954C229.833 220.778 232.022 217.6 234.217 214.424C238.6 208.07 242.997 201.716 247.374 195.355C249.841 191.766 252.308 188.171 254.769 184.575C254.954 184.305 254.529 184.032 254.343 184.302L254.356 184.31Z" fill="#231F20"/>
</g>
<defs>
<filter id="filter0_d_72_702" x="3.05176e-05" y="0" width="350.297" height="299.157" filterUnits="userSpaceOnUse" color-interpolation-filters="sRGB">
<feFlood flood-opacity="0" result="BackgroundImageFix"/>
<feColorMatrix in="SourceAlpha" type="matrix" values="0 0 0 0 0 0 0 0 0 0 0 0 0 0 0 0 0 0 127 0" result="hardAlpha"/>
<feOffset dy="4"/>
<feGaussianBlur stdDeviation="21.5"/>
<feComposite in2="hardAlpha" operator="out"/>
<feColorMatrix type="matrix" values="0 0 0 0 0.025 0 0 0 0 0.025 0 0 0 0 0.025 0 0 0 0.11 0"/>
<feBlend mode="normal" in2="BackgroundImageFix" result="effect1_dropShadow_72_702"/>
<feBlend mode="normal" in="SourceGraphic" in2="effect1_dropShadow_72_702" result="shape"/>
</filter>
<linearGradient id="paint0_linear_72_702" x1="179.889" y1="45.0051" x2="46.6119" y2="91.5015" gradientUnits="userSpaceOnUse">
<stop stop-color="white"/>
<stop offset="1" stop-color="#F5F5F5"/>
</linearGradient>
</defs>
</svg>
