<svg width="47" height="47" viewBox="0 0 47 47" fill="none" xmlns="http://www.w3.org/2000/svg">
<path d="M43.6265 26.7261C43.1125 27.0232 42.7448 27.3168 42.4414 27.6847C42.6413 26.7756 42.7769 25.8241 42.8519 24.8266C44.0192 24.8442 44.8331 24.5259 45.7184 23.7158C46.4824 23.0154 46.8179 22.4106 47 21.3918C45.7577 21.3812 44.9438 21.6889 44.0264 22.5202C43.4588 23.0331 43.1196 23.4894 42.8983 24.0979C42.9376 23.1428 42.9197 22.1523 42.8412 21.1159C42.834 21.0204 42.8233 20.9249 42.8162 20.8294C43.9942 20.6101 44.7368 20.1325 45.4436 19.1421C46.0433 18.2966 46.2432 17.6387 46.2111 16.6058C44.9938 16.8534 44.262 17.3203 43.5373 18.3214C43.0661 18.9687 42.834 19.5064 42.7519 20.1891C42.6127 19.0395 42.3878 17.9394 42.0773 16.8852C43.1375 16.4325 43.7443 15.8134 44.2156 14.7275C44.6261 13.7795 44.6832 13.0932 44.4333 12.0886C43.2946 12.5803 42.677 13.1887 42.1772 14.3171C41.9059 14.9291 41.781 15.4314 41.7845 15.9832C41.4383 14.9928 41.0135 14.0518 40.5208 13.164C41.4133 12.5166 41.8595 11.795 42.0844 10.6666C42.2879 9.65494 42.1986 8.9687 41.7453 8.04192C40.735 8.75646 40.2602 9.48161 40.0068 10.6878C39.889 11.2538 39.8604 11.7137 39.9318 12.1735C39.407 11.3564 38.818 10.5853 38.1719 9.87072C38.8894 9.06421 39.1679 8.27185 39.1536 7.13283C39.1393 6.09993 38.9073 5.44906 38.2683 4.63547C37.4294 5.54456 37.1152 6.35108 37.1224 7.57853C37.1224 8.14097 37.1902 8.59021 37.3473 9.01822C36.6619 8.3532 35.9229 7.74478 35.134 7.19296C35.6837 6.24142 35.7944 5.40307 35.5374 4.2782C35.3053 3.27006 34.9448 2.68286 34.1487 2.01785C33.5204 3.07905 33.3812 3.93154 33.6454 5.13423C33.7775 5.73558 33.956 6.18836 34.238 6.60223C33.4062 6.08578 32.5209 5.62946 31.5963 5.23328C31.9604 4.15793 31.8997 3.3019 31.4035 2.23362C30.968 1.29623 30.4897 0.79393 29.5722 0.309315C29.1796 1.47663 29.2224 2.33974 29.7329 3.46108C30.022 4.09426 30.3255 4.52935 30.7645 4.90431C29.84 4.55765 28.8761 4.27113 27.873 4.04474C28.0015 3.09319 27.8195 2.41049 27.2304 1.63228C26.7307 0.970796 26.2737 0.655974 25.4741 0.426047C25.3634 1.40589 25.5419 2.07091 26.1309 2.86681C26.5308 3.40448 26.8985 3.7193 27.4446 3.95277C26.9342 3.85018 26.413 3.76175 25.8846 3.68747L25.0921 3.928C25.6526 4.00229 26.2059 4.10133 26.7521 4.21453C26.2452 4.40554 25.8347 4.72037 25.4277 5.21559C24.8994 5.85585 24.703 6.3723 24.6745 7.1965C25.6597 7.06562 26.2702 6.73311 26.9056 5.97612C27.3447 5.45259 27.5589 5.0175 27.6553 4.42323C28.5406 4.64962 29.4009 4.92907 30.2326 5.25804C29.5258 5.34647 28.9154 5.62946 28.2585 6.15652C27.4446 6.80385 27.0698 7.38398 26.8163 8.38504C28.0551 8.48055 28.8868 8.2294 29.865 7.46534C30.5646 6.91705 30.9466 6.42536 31.2215 5.67545C32.0711 6.06102 32.8886 6.49964 33.6668 6.99133C32.9921 6.95242 32.3602 7.10807 31.6391 7.46887C30.7074 7.9358 30.2184 8.42395 29.7614 9.35073C30.9537 9.69739 31.8212 9.62664 32.935 9.07836C33.7239 8.69279 34.1987 8.29307 34.6235 7.63159C35.3803 8.1728 36.0943 8.76354 36.7618 9.40026C36.105 9.21985 35.4553 9.24108 34.6699 9.44624C33.6632 9.71154 33.0814 10.09 32.4388 10.9001C33.5311 11.4873 34.395 11.5934 35.6016 11.2892C36.4584 11.0734 37.0081 10.7763 37.565 10.2103C38.2004 10.8965 38.7823 11.6288 39.3035 12.4034C38.6931 12.0816 38.0434 11.9648 37.2223 12.0037C36.1799 12.0533 35.5338 12.3044 34.7342 12.9659C35.6802 13.7653 36.5048 14.0448 37.7435 13.9952C38.6288 13.9599 39.2321 13.783 39.8961 13.3408C40.3637 14.1332 40.7707 14.968 41.1134 15.8347C40.5851 15.4031 39.9818 15.159 39.175 15.0281C38.1469 14.8619 37.4615 14.9751 36.5369 15.4562C37.2937 16.4325 38.0398 16.8782 39.2642 17.0869C40.1317 17.2354 40.7529 17.1859 41.4882 16.8994C41.7595 17.7413 41.9737 18.615 42.1237 19.517C41.706 19.0218 41.1777 18.6751 40.4494 18.3957C39.4784 18.0207 38.7823 17.9889 37.7792 18.2719C38.3147 19.3826 38.9537 19.9733 40.1067 20.4261C40.9099 20.7445 41.5204 20.8294 42.2807 20.7056C42.295 20.8506 42.3093 20.9992 42.32 21.1442C42.3807 21.9189 42.4021 22.6652 42.395 23.3904C42.0915 22.8174 41.6489 22.3716 40.992 21.9472C40.121 21.3812 39.4463 21.2079 38.4075 21.2751C38.6966 22.4707 39.1964 23.1782 40.2317 23.8644C40.967 24.349 41.5525 24.5577 42.345 24.5896C42.2736 25.6331 42.1308 26.6235 41.9202 27.5609C41.7774 26.7933 41.4204 26.1814 40.7743 25.5376C40.0389 24.8053 39.4177 24.494 38.3861 24.349C38.4218 25.58 38.7609 26.3759 39.6284 27.2567C40.2852 27.9217 40.8457 28.2472 41.6988 28.4382C41.3918 29.5312 40.9849 30.55 40.4923 31.4944C40.5744 30.5959 40.3673 29.8566 39.814 29.0077C39.25 28.141 38.7074 27.7095 37.7292 27.3522C37.5043 28.562 37.6685 29.4109 38.3325 30.4509C38.8501 31.261 39.3428 31.696 40.1781 32.0639C39.6462 32.9836 39.0286 33.8291 38.3325 34.6037C38.5467 33.8078 38.4789 33.0827 38.1398 32.1984C37.7685 31.2327 37.3294 30.6985 36.4477 30.1502C35.9729 31.2893 35.9586 32.1524 36.387 33.3055C36.7083 34.1686 37.0831 34.6886 37.7685 35.198C37.1295 35.8383 36.4405 36.429 35.698 36.9667C35.9193 36.3618 35.9586 35.7392 35.8372 34.9752C35.6766 33.9564 35.3589 33.3409 34.6128 32.6228C33.9095 33.638 33.7132 34.4799 33.8917 35.6968C34.0131 36.5174 34.2308 37.0728 34.6878 37.6458C33.8346 38.1835 32.9278 38.6611 31.9747 39.0855C32.3388 38.5302 32.5138 37.9147 32.5566 37.1259C32.6137 36.0965 32.4316 35.4315 31.8498 34.5719C30.9502 35.4209 30.5789 36.2026 30.5004 37.4301C30.4468 38.2719 30.5468 38.8698 30.8859 39.5348C29.6865 39.9982 28.4228 40.3837 27.1126 40.6915C28.0586 40.122 28.5656 39.4428 28.8904 38.3356C29.1796 37.3452 29.1546 36.6554 28.7833 35.6897C27.7124 36.3158 27.1769 36.995 26.8199 38.1729C26.5272 39.1386 26.5343 39.8107 26.8485 40.7516C26.7878 40.7658 26.7235 40.7799 26.6593 40.7941C26.6486 40.7941 26.6414 40.7941 26.6343 40.7941C25.9168 40.9532 25.1885 41.0877 24.4496 41.2009C24.1247 41.2504 23.8141 41.3282 23.5107 41.4237C23.2037 41.3247 22.886 41.2468 22.554 41.1938C21.8115 41.0806 21.0832 40.9426 20.3693 40.787C20.3586 40.787 20.3514 40.787 20.3407 40.787C20.28 40.7728 20.2158 40.7587 20.1551 40.7445C20.4692 39.8071 20.4764 39.1315 20.1837 38.1658C19.8267 36.9879 19.2912 36.3052 18.2203 35.6791C17.849 36.6448 17.8204 37.3346 18.1132 38.325C18.438 39.4322 18.9449 40.1114 19.8909 40.6809C18.5808 40.3731 17.3171 39.9876 16.1177 39.5242C16.4568 38.8556 16.5603 38.2613 16.5032 37.4194C16.4247 36.192 16.0534 35.4102 15.1538 34.5613C14.5755 35.4173 14.3899 36.0823 14.447 37.1152C14.4898 37.9076 14.6683 38.5196 15.0289 39.0749C14.0757 38.6504 13.169 38.1729 12.3158 37.6352C12.7727 37.0622 12.9905 36.5068 13.1119 35.6862C13.2904 34.4693 13.094 33.6274 12.3908 32.6122C11.6447 33.3303 11.3234 33.9458 11.1663 34.9645C11.0485 35.7286 11.0842 36.3512 11.3091 36.9561C10.5666 36.4184 9.87407 35.8312 9.23865 35.1874C9.92405 34.6745 10.2953 34.1545 10.6166 33.2949C11.0485 32.1418 11.0307 31.2751 10.5559 30.1396C9.67416 30.6879 9.23151 31.222 8.86382 32.1877C8.52469 33.0721 8.46043 33.7972 8.67462 34.5931C7.97851 33.8184 7.36093 32.973 6.82903 32.0533C7.66793 31.6854 8.16057 31.2503 8.67462 30.4403C9.3386 29.4003 9.50281 28.5514 9.27791 27.3416C8.29979 27.6953 7.75718 28.1269 7.19315 28.9971C6.63983 29.846 6.43278 30.5853 6.51489 31.4838C6.02225 30.5393 5.6153 29.5241 5.30829 28.4311C6.16148 28.2401 6.72194 27.9146 7.37878 27.2496C8.24624 26.3688 8.58537 25.5729 8.62107 24.3419C7.5894 24.487 6.96825 24.7983 6.23287 25.5305C5.58674 26.1743 5.23333 26.7862 5.09054 27.5538C4.87992 26.6164 4.73356 25.626 4.66573 24.5825C5.45823 24.5506 6.04724 24.3419 6.77905 23.8573C7.81073 23.1746 8.3105 22.4672 8.60322 21.268C7.56441 21.1973 6.88972 21.3741 6.01869 21.9401C5.36541 22.3646 4.91919 22.8103 4.61575 23.3833C4.60504 22.6582 4.63003 21.9118 4.69072 21.1371C4.70143 20.9886 4.71571 20.8435 4.72999 20.6985C5.49035 20.8188 6.10079 20.7339 6.904 20.419C8.05704 19.9627 8.69604 19.3755 9.23151 18.2648C8.22839 17.9818 7.53585 18.0137 6.5613 18.3886C5.83306 18.6681 5.30473 19.0147 4.88706 19.5099C5.03699 18.6079 5.24761 17.7342 5.52248 16.8923C6.25786 17.1824 6.87901 17.2284 7.74647 17.0798C8.97091 16.8711 9.717 16.4254 10.4738 15.4491C9.55279 14.968 8.86739 14.8548 7.83571 15.0211C7.02894 15.152 6.42564 15.396 5.89731 15.8276C6.24001 14.9574 6.64697 14.1261 7.11461 13.3338C7.78217 13.7759 8.38189 13.9528 9.26721 13.9882C10.5095 14.0377 11.3341 13.7547 12.2765 12.9553C11.4769 12.2938 10.8272 12.0426 9.7884 11.9931C8.96377 11.9542 8.31764 12.0709 7.7072 12.3928C8.22839 11.6182 8.81027 10.8859 9.44569 10.1997C10.0026 10.7657 10.5523 11.0593 11.4091 11.2786C12.6121 11.5828 13.476 11.4767 14.5719 10.8895C13.9294 10.0759 13.3475 9.69739 12.3408 9.43563C11.5554 9.23046 10.9022 9.20924 10.2489 9.38964C10.9165 8.75292 11.6304 8.16219 12.3872 7.62098C12.812 8.28246 13.2868 8.68218 14.0757 9.06775C15.1895 9.6125 16.057 9.68678 17.2493 9.34012C16.7888 8.41334 16.2997 7.92165 15.3716 7.45826C14.6505 7.09745 14.0186 6.94181 13.3439 6.98072C14.1221 6.49257 14.9396 6.0504 15.7892 5.66483C16.0641 6.41475 16.4461 6.90997 17.1458 7.45472C18.1203 8.21879 18.9556 8.46994 20.1944 8.37443C19.9409 7.37336 19.5661 6.79324 18.7522 6.14591C18.0918 5.61885 17.4849 5.33586 16.7745 5.24743C17.6063 4.91846 18.4702 4.63901 19.3519 4.41262C19.4483 5.00689 19.666 5.44552 20.1016 5.96551C20.737 6.7225 21.3474 7.05854 22.3327 7.18589C22.3006 6.36169 22.1042 5.84524 21.5795 5.20498C21.1689 4.70622 20.7584 4.3914 20.2515 4.20038C20.7977 4.08365 21.351 3.98814 21.915 3.91386L21.1225 3.66978C20.5978 3.74053 20.0801 3.82896 19.5697 3.93154C20.1123 3.69808 20.4799 3.38326 20.8762 2.84912C21.4652 2.05676 21.6437 1.3882 21.533 0.408361C20.7334 0.638287 20.2765 0.95311 19.7767 1.61459C19.1877 2.39634 19.0056 3.07551 19.1341 4.02705C18.1346 4.2499 17.1707 4.53996 16.2426 4.88662C16.6817 4.51166 16.9851 4.07657 17.2743 3.44693C17.7847 2.32559 17.8312 1.46249 17.4349 0.295166C16.5175 0.783318 16.0391 1.28208 15.6036 2.21947C15.1038 3.28775 15.0467 4.14378 15.4108 5.21913C14.4863 5.61531 13.6009 6.07163 12.7692 6.58808C13.0548 6.17421 13.2297 5.72143 13.3618 5.12008C13.6259 3.91739 13.4903 3.0649 12.8584 2.0037C12.0624 2.66872 11.7018 3.25945 11.4698 4.26405C11.2127 5.38892 11.3234 6.22373 11.8732 7.17881C11.0842 7.73417 10.3453 8.34259 9.65988 9.00407C9.81695 8.57606 9.88121 8.12682 9.88478 7.56438C9.89192 6.33339 9.57778 5.52688 8.73887 4.61778C8.09988 5.43137 7.86784 6.08224 7.85356 7.11514C7.83928 8.25416 8.11773 9.04298 8.83526 9.85303C8.18912 10.5676 7.60011 11.3387 7.07535 12.1558C7.14674 11.696 7.11818 11.2326 6.99681 10.6702C6.74336 9.46393 6.26857 8.74231 5.25832 8.02423C4.80495 8.95455 4.71571 9.63726 4.91919 10.6489C5.14408 11.7773 5.59031 12.499 6.48276 13.1463C5.99013 14.0342 5.56532 14.9786 5.21905 15.9655C5.22262 15.4137 5.09768 14.915 4.82637 14.2995C4.3266 13.171 3.70902 12.5626 2.57026 12.0709C2.32037 13.072 2.37749 13.7618 2.78801 14.7098C3.25923 15.7957 3.8661 16.4148 4.92633 16.8676C4.61575 17.9217 4.38729 19.0218 4.25163 20.1714C4.16953 19.4852 3.93749 18.951 3.46628 18.3037C2.74161 17.3027 2.0098 16.8357 0.792496 16.5881C0.760368 17.621 0.956707 18.279 1.56 19.1244C2.26325 20.1148 3.00577 20.5924 4.18381 20.8117C4.17667 20.9072 4.16596 21.0027 4.15882 21.0982C4.08028 22.1311 4.06243 23.1251 4.1017 24.0766C3.8768 23.4682 3.54124 23.0119 2.97364 22.499C2.05621 21.6713 1.24229 21.3635 0 21.3706C0.18206 22.3858 0.517621 22.9907 1.28156 23.6946C2.1633 24.5047 2.97721 24.823 4.14811 24.8053C4.22307 25.8029 4.35873 26.7579 4.55864 27.6635C4.2552 27.2921 3.88751 26.9985 3.37346 26.7049C2.30252 26.0858 1.43863 25.9514 0.224897 26.2167C0.617576 27.1718 1.07094 27.6953 1.96696 28.2259C2.94866 28.8061 3.77328 28.9617 4.82994 28.7565C5.07983 29.6302 5.38683 30.458 5.74738 31.2468C5.43681 31.0416 5.0834 30.8825 4.64431 30.741C3.46628 30.3554 2.59525 30.4014 1.46362 30.9108C2.04907 31.7668 2.60239 32.1842 3.58765 32.5167C4.62646 32.8669 5.44395 32.8669 6.38281 32.4955C6.82189 33.2666 7.31452 33.9918 7.85713 34.6709C7.52514 34.5471 7.16459 34.4729 6.73265 34.4233C5.49749 34.2889 4.65502 34.5118 3.65548 35.244C4.40871 35.9585 5.03699 36.2557 6.07223 36.3759C7.16816 36.5068 7.97137 36.3335 8.82098 35.7675C9.47068 36.4467 10.1739 37.0693 10.9272 37.6423C10.5095 37.5503 10.0775 37.5397 9.55279 37.5928C8.31764 37.7166 7.53942 38.1092 6.7148 39.0289C7.60011 39.5737 8.27837 39.7329 9.31361 39.6409C10.4595 39.5383 11.227 39.1775 11.966 38.3816C12.7585 38.9051 13.5938 39.3756 14.4648 39.8001C14.1364 39.8284 13.7973 39.9027 13.4153 40.0229C12.2301 40.3979 11.5554 40.9426 10.9414 42.0109C11.9231 42.3611 12.6157 42.3788 13.6117 42.071C14.6612 41.7491 15.3216 41.2716 15.8642 40.4191C16.5853 40.7127 17.3278 40.9745 18.0918 41.2079C17.9847 41.261 17.8776 41.3247 17.7633 41.3883C16.696 42.018 16.1605 42.6971 15.8035 43.8786C16.8388 44.0024 17.5206 43.8609 18.4202 43.3409C19.1948 42.8952 19.691 42.4071 20.0302 41.7279C20.6799 41.88 21.3438 42.0109 22.015 42.1241C20.1265 43.2525 18.6379 45.099 16.9387 46.3088L18.1917 46.7049C20.1694 45.2971 21.3224 43.2631 23.5107 42.4672C25.6919 43.2667 26.8378 45.2935 28.8154 46.6979L30.0684 46.3017C28.3764 45.099 26.8913 43.256 25.01 42.1276C25.674 42.0144 26.3309 41.8836 26.977 41.735C27.3161 42.4142 27.8159 42.9023 28.587 43.348C29.4866 43.868 30.1684 44.006 31.2036 43.8822C30.8502 42.7007 30.3148 42.0215 29.2438 41.3919C29.1331 41.3247 29.0225 41.2645 28.9154 41.2115C29.6758 40.978 30.4183 40.7162 31.1429 40.4226C31.682 41.2751 32.346 41.7527 33.3955 42.0746C34.3915 42.3788 35.0876 42.3646 36.0657 42.0144C35.4517 40.9426 34.777 40.3979 33.5918 40.0265C33.2063 39.9062 32.8707 39.8319 32.5423 39.8036C33.4169 39.3827 34.2522 38.9087 35.0412 38.3851C35.7801 39.181 36.5441 39.5418 37.6935 39.6444C38.7323 39.7364 39.407 39.5808 40.2924 39.036C39.4677 38.1163 38.6931 37.7237 37.4544 37.5999C36.9296 37.5468 36.4941 37.5574 36.08 37.6494C36.8332 37.0763 37.5365 36.4538 38.1862 35.7746C39.0358 36.3406 39.8354 36.5139 40.9349 36.383C41.9702 36.2592 42.5984 35.9656 43.3517 35.2511C42.3521 34.5188 41.5097 34.296 40.2745 34.4304C39.8426 34.4764 39.482 34.5542 39.15 34.678C39.6962 33.9989 40.1888 33.2772 40.6243 32.5026C41.5632 32.874 42.3807 32.874 43.4195 32.5238C44.4048 32.1913 44.9581 31.7739 45.5435 30.9178C44.4119 30.4085 43.5409 30.3625 42.3628 30.748C41.9237 30.8931 41.5703 31.0523 41.2598 31.2539C41.6203 30.4686 41.9273 29.6409 42.1772 28.7671C43.2339 28.9723 44.0585 28.8167 45.0402 28.2365C45.9362 27.7095 46.3896 27.186 46.7822 26.2273C45.5685 25.962 44.7082 26.0965 43.6337 26.7155L43.6265 26.7261Z" fill="url(#paint0_linear_37_680)"/>
<defs>
<linearGradient id="paint0_linear_37_680" x1="21.6312" y1="2.16199" x2="21.6312" y2="46.712" gradientUnits="userSpaceOnUse">
<stop stop-color="#EECE4E"/>
<stop offset="1" stop-color="#BE9B10"/>
</linearGradient>
</defs>
</svg>
