<svg width="47" height="47" viewBox="0 0 47 47" fill="none" xmlns="http://www.w3.org/2000/svg">
<path d="M43.6265 26.7671C43.1125 27.068 42.7448 27.3653 42.4414 27.7379C42.6413 26.8172 42.7769 25.8536 42.8519 24.8434C44.0192 24.8613 44.8331 24.5389 45.7184 23.7185C46.4824 23.0092 46.8179 22.3966 47 21.3649C45.7577 21.3542 44.9438 21.6659 44.0264 22.5077C43.4588 23.0271 43.1196 23.4893 42.8983 24.1054C42.9376 23.1382 42.9197 22.1351 42.8412 21.0855C42.834 20.9888 42.8233 20.8921 42.8162 20.7954C43.9942 20.5732 44.7368 20.0896 45.4436 19.0866C46.0433 18.2304 46.2432 17.5641 46.2111 16.5181C44.9938 16.7688 44.262 17.2417 43.5373 18.2555C43.0661 18.9111 42.834 19.4556 42.7519 20.147C42.6127 18.9827 42.3878 17.8686 42.0773 16.8011C43.1375 16.3425 43.7443 15.7156 44.2156 14.6159C44.6261 13.6558 44.6832 12.9608 44.4333 11.9434C43.2946 12.4414 42.677 13.0575 42.1772 14.2003C41.9059 14.82 41.781 15.3287 41.7845 15.8876C41.4383 14.8845 41.0135 13.9316 40.5208 13.0325C41.4133 12.3769 41.8595 11.6461 42.0844 10.5034C42.2879 9.47881 42.1986 8.78384 41.7453 7.84528C40.735 8.5689 40.2602 9.30328 40.0068 10.5248C39.889 11.098 39.8604 11.5637 39.9318 12.0294C39.407 11.2019 38.818 10.421 38.1719 9.69733C38.8894 8.88056 39.1679 8.07812 39.1536 6.92462C39.1393 5.87858 38.9073 5.21944 38.2683 4.3955C37.4294 5.31616 37.1152 6.13293 37.1224 7.37599C37.1224 7.94558 37.1902 8.40053 37.3473 8.83399C36.6619 8.16052 35.9229 7.54436 35.134 6.98552C35.6837 6.02188 35.7944 5.17287 35.5374 4.03369C35.3053 3.01273 34.9448 2.41806 34.1487 1.74459C33.5204 2.81928 33.3812 3.68262 33.6454 4.90061C33.7775 5.5096 33.956 5.96814 34.238 6.38727C33.4062 5.86425 32.5209 5.40213 31.5963 5.00092C31.9604 3.91189 31.8997 3.04497 31.4035 1.96311C30.968 1.0138 30.4897 0.505107 29.5722 0.0143293C29.1796 1.19649 29.2224 2.07058 29.7329 3.20617C30.022 3.84741 30.3255 4.28803 30.7645 4.66776C29.84 4.31669 28.8761 4.02652 27.873 3.79726C28.0015 2.83361 27.8195 2.14223 27.2304 1.35412C26.7307 0.684223 26.2737 0.365396 25.4741 0.132546C25.3634 1.12485 25.5419 1.79832 26.1309 2.60434C26.5308 3.14886 26.8985 3.46768 27.4446 3.70412C26.9342 3.60023 26.413 3.51067 25.8846 3.43544L25.0921 3.67904C25.6526 3.75427 26.2059 3.85457 26.7521 3.96921C26.2452 4.16265 25.8347 4.48148 25.4277 4.983C24.8994 5.6314 24.703 6.15442 24.6745 6.9891C25.6597 6.85656 26.2702 6.51982 26.9056 5.7532C27.3447 5.22302 27.5589 4.78239 27.6553 4.18056C28.5406 4.40983 29.4009 4.69284 30.2326 5.02599C29.5258 5.11555 28.9154 5.40213 28.2585 5.9359C27.4446 6.59146 27.0698 7.17896 26.8163 8.19276C28.0551 8.28948 28.8868 8.03514 29.865 7.26136C30.5646 6.7061 30.9466 6.20816 31.2215 5.4487C32.0711 5.83918 32.8886 6.28338 33.6668 6.78133C32.9921 6.74192 32.3602 6.89954 31.6391 7.26494C30.7074 7.73781 30.2184 8.23217 29.7614 9.17073C30.9537 9.5218 31.8212 9.45015 32.935 8.89489C33.7239 8.50442 34.1987 8.09962 34.6235 7.42973C35.3803 7.97782 36.0943 8.57607 36.7618 9.22088C36.105 9.03819 35.4553 9.05968 34.6699 9.26746C33.6632 9.53613 33.0814 9.91944 32.4388 10.7398C33.5311 11.3345 34.395 11.4419 35.6016 11.1338C36.4584 10.9153 37.0081 10.6144 37.565 10.0412C38.2004 10.7362 38.7823 11.4777 39.3035 12.2623C38.6931 11.9363 38.0434 11.8181 37.2223 11.8575C36.1799 11.9076 35.5338 12.162 34.7342 12.8319C35.6802 13.6415 36.5048 13.9245 37.7435 13.8743C38.6288 13.8385 39.2321 13.6594 39.8961 13.2116C40.3637 14.014 40.7707 14.8595 41.1134 15.7371C40.5851 15.3001 39.9818 15.0529 39.175 14.9204C38.1469 14.752 37.4615 14.8666 36.5369 15.3538C37.2937 16.3425 38.0398 16.7939 39.2642 17.0053C40.1317 17.1557 40.7529 17.1056 41.4882 16.8154C41.7595 17.668 41.9737 18.5528 42.1237 19.4663C41.706 18.9648 41.1777 18.6137 40.4494 18.3307C39.4784 17.951 38.7823 17.9188 37.7792 18.2053C38.3147 19.3302 38.9537 19.9284 40.1067 20.387C40.9099 20.7094 41.5204 20.7954 42.2807 20.67C42.295 20.8168 42.3093 20.9673 42.32 21.1142C42.3807 21.8987 42.4021 22.6546 42.395 23.389C42.0915 22.8086 41.6489 22.3572 40.992 21.9274C40.121 21.3542 39.4463 21.1787 38.4075 21.2467C38.6966 22.4575 39.1964 23.174 40.2317 23.869C40.967 24.3598 41.5525 24.5711 42.345 24.6034C42.2736 25.6601 42.1308 26.6632 41.9202 27.6125C41.7774 26.8351 41.4204 26.2154 40.7743 25.5634C40.0389 24.8219 39.4177 24.5066 38.3861 24.3598C38.4218 25.6064 38.7609 26.4124 39.6284 27.3044C40.2852 27.9779 40.8457 28.3075 41.6988 28.5009C41.3918 29.6079 40.9849 30.6396 40.4923 31.596C40.5744 30.6861 40.3673 29.9374 39.814 29.0777C39.25 28.2 38.7074 27.763 37.7292 27.4011C37.5043 28.6263 37.6685 29.4861 38.3325 30.5393C38.8501 31.3596 39.3428 31.8002 40.1781 32.1728C39.6462 33.1042 39.0286 33.9604 38.3325 34.7449C38.5467 33.9389 38.4789 33.2045 38.1398 32.3089C37.7685 31.3309 37.3294 30.79 36.4477 30.2348C35.9729 31.3883 35.9586 32.2623 36.387 33.4302C36.7083 34.3043 37.0831 34.8309 37.7685 35.3467C37.1295 35.9951 36.4405 36.5934 35.698 37.1379C35.9193 36.5253 35.9586 35.8948 35.8372 35.121C35.6766 34.0893 35.3589 33.466 34.6128 32.7388C33.9095 33.7669 33.7132 34.6195 33.8917 35.8518C34.0131 36.6829 34.2308 37.2453 34.6878 37.8257C33.8346 38.3702 32.9278 38.8538 31.9747 39.2837C32.3388 38.7213 32.5138 38.0979 32.5566 37.2991C32.6137 36.2566 32.4316 35.5832 31.8498 34.7127C30.9502 35.5724 30.5789 36.3641 30.5004 37.6072C30.4468 38.4598 30.5468 39.0652 30.8859 39.7386C29.6865 40.2079 28.4228 40.5984 27.1126 40.9101C28.0586 40.3333 28.5656 39.6455 28.8904 38.5242C29.1796 37.5212 29.1546 36.8226 28.7833 35.8447C27.7124 36.4787 27.1769 37.1665 26.8199 38.3595C26.5272 39.3374 26.5343 40.0181 26.8485 40.971C26.7878 40.9853 26.7235 40.9996 26.6593 41.014C26.6486 41.014 26.6414 41.014 26.6343 41.014C25.9168 41.1752 25.1885 41.3113 24.4496 41.4259C24.1247 41.4761 23.8141 41.5549 23.5107 41.6516C23.2037 41.5513 22.886 41.4725 22.554 41.4188C21.8115 41.3041 21.0832 41.1644 20.3693 41.0068C20.3586 41.0068 20.3514 41.0068 20.3407 41.0068C20.28 40.9925 20.2158 40.9781 20.1551 40.9638C20.4692 40.0145 20.4764 39.3303 20.1837 38.3523C19.8267 37.1594 19.2912 36.468 18.2203 35.8339C17.849 36.8119 17.8204 37.5104 18.1132 38.5135C18.438 39.6348 18.9449 40.3226 19.8909 40.8993C18.5808 40.5877 17.3171 40.1972 16.1177 39.7279C16.4568 39.0508 16.5603 38.449 16.5032 37.5964C16.4247 36.3534 16.0534 35.5617 15.1538 34.7019C14.5755 35.5688 14.3899 36.2423 14.447 37.2883C14.4898 38.0908 14.6683 38.7105 15.0289 39.2729C14.0757 38.8431 13.169 38.3595 12.3158 37.8149C12.7727 37.2346 12.9905 36.6722 13.1119 35.8411C13.2904 34.6088 13.094 33.7562 12.3908 32.7281C11.6447 33.4553 11.3234 34.0786 11.1663 35.1103C11.0485 35.8841 11.0842 36.5146 11.3091 37.1271C10.5666 36.5826 9.87407 35.988 9.23865 35.336C9.92405 34.8165 10.2953 34.2899 10.6166 33.4194C11.0485 32.2516 11.0307 31.3739 10.5559 30.224C9.67416 30.7793 9.23151 31.3202 8.86382 32.2982C8.52469 33.1937 8.46043 33.9281 8.67462 34.7341C7.97851 33.9496 7.36093 33.0934 6.82903 32.162C7.66793 31.7895 8.16057 31.3489 8.67462 30.5285C9.3386 29.4753 9.50281 28.6155 9.27791 27.3904C8.29979 27.7486 7.75718 28.1857 7.19315 29.0669C6.63983 29.9267 6.43278 30.6754 6.51489 31.5853C6.02225 30.6288 5.6153 29.6007 5.30829 28.4938C6.16148 28.3003 6.72194 27.9707 7.37878 27.2973C8.24624 26.4053 8.58537 25.5992 8.62107 24.3526C7.5894 24.4995 6.96825 24.8147 6.23287 25.5562C5.58674 26.2082 5.23333 26.828 5.09054 27.6053C4.87992 26.656 4.73356 25.653 4.66573 24.5962C5.45823 24.5639 6.04724 24.3526 6.77905 23.8618C7.81073 23.1704 8.3105 22.454 8.60322 21.2396C7.56441 21.1679 6.88972 21.347 6.01869 21.9202C5.36541 22.3501 4.91919 22.8014 4.61575 23.3818C4.60504 22.6474 4.63003 21.8915 4.69072 21.107C4.70143 20.9566 4.71571 20.8097 4.72999 20.6628C5.49035 20.7846 6.10079 20.6986 6.904 20.3798C8.05704 19.9177 8.69604 19.323 9.23151 18.1982C8.22839 17.9116 7.53585 17.9438 6.5613 18.3236C5.83306 18.6066 5.30473 18.9576 4.88706 19.4591C5.03699 18.5457 5.24761 17.6608 5.52248 16.8082C6.25786 17.102 6.87901 17.1486 7.74647 16.9981C8.97091 16.7867 9.717 16.3354 10.4738 15.3466C9.55279 14.8595 8.86739 14.7448 7.83571 14.9132C7.02894 15.0457 6.42564 15.2929 5.89731 15.73C6.24001 14.8487 6.64697 14.0069 7.11461 13.2044C7.78217 13.6522 8.38189 13.8313 9.26721 13.8671C10.5095 13.9173 11.3341 13.6307 12.2765 12.8211C11.4769 12.1512 10.8272 11.8969 9.7884 11.8467C8.96377 11.8073 8.31764 11.9255 7.7072 12.2515C8.22839 11.467 8.81027 10.7255 9.44569 10.0305C10.0026 10.6037 10.5523 10.901 11.4091 11.1231C12.6121 11.4312 13.476 11.3237 14.5719 10.729C13.9294 9.90511 13.3475 9.5218 12.3408 9.25671C11.5554 9.04893 10.9022 9.02744 10.2489 9.21014C10.9165 8.56532 11.6304 7.96707 12.3872 7.41898C12.812 8.08887 13.2868 8.49367 14.0757 8.88415C15.1895 9.43582 16.057 9.51105 17.2493 9.15999C16.7888 8.22142 16.2997 7.72348 15.3716 7.25419C14.6505 6.8888 14.0186 6.73117 13.3439 6.77058C14.1221 6.27622 14.9396 5.82843 15.7892 5.43796C16.0641 6.19741 16.4461 6.69893 17.1458 7.25061C18.1203 8.02439 18.9556 8.27874 20.1944 8.18201C19.9409 7.16822 19.5661 6.58072 18.7522 5.92515C18.0918 5.39139 17.4849 5.1048 16.7745 5.01524C17.6063 4.68209 18.4702 4.39909 19.3519 4.16982C19.4483 4.77165 19.666 5.21585 20.1016 5.74246C20.737 6.50907 21.3474 6.84939 22.3327 6.97835C22.3006 6.14367 22.1042 5.62066 21.5795 4.97226C21.1689 4.46715 20.7584 4.14832 20.2515 3.95488C20.7977 3.83666 21.351 3.73994 21.915 3.66471L21.1225 3.41753C20.5978 3.48918 20.0801 3.57873 19.5697 3.68262C20.1123 3.44619 20.4799 3.12736 20.8762 2.58643C21.4652 1.78399 21.6437 1.10694 21.533 0.114634C20.7334 0.347485 20.2765 0.666311 19.7767 1.3362C19.1877 2.1279 19.0056 2.8157 19.1341 3.77934C18.1346 4.00503 17.1707 4.29878 16.2426 4.64985C16.6817 4.27012 16.9851 3.8295 17.2743 3.19184C17.7847 2.05625 17.8312 1.18216 17.4349 0C16.5175 0.49436 16.0391 0.999466 15.6036 1.94878C15.1038 3.03064 15.0467 3.89756 15.4108 4.98659C14.4863 5.3878 13.6009 5.84992 12.7692 6.37294C13.0548 5.95381 13.2297 5.49527 13.3618 4.88628C13.6259 3.66829 13.4903 2.80495 12.8584 1.73026C12.0624 2.40373 11.7018 3.00198 11.4698 4.01936C11.2127 5.15854 11.3234 6.00396 11.8732 6.97119C11.0842 7.53361 10.3453 8.14977 9.65988 8.81966C9.81695 8.3862 9.88121 7.93125 9.88478 7.36166C9.89192 6.11502 9.57778 5.29825 8.73887 4.37759C8.09988 5.20152 7.86784 5.86067 7.85356 6.90671C7.83928 8.06021 8.11773 8.85907 8.83526 9.67942C8.18912 10.403 7.60011 11.184 7.07535 12.0115C7.14674 11.5458 7.11818 11.0765 6.99681 10.5069C6.74336 9.28537 6.26857 8.55457 5.25832 7.82736C4.80495 8.76951 4.71571 9.4609 4.91919 10.4854C5.14408 11.6282 5.59031 12.359 6.48276 13.0146C5.99013 13.9137 5.56532 14.8702 5.21905 15.8697C5.22262 15.3108 5.09768 14.8057 4.82637 14.1824C4.3266 13.0396 3.70902 12.4235 2.57026 11.9255C2.32037 12.9393 2.37749 13.6379 2.78801 14.5979C3.25923 15.6977 3.8661 16.3246 4.92633 16.7832C4.61575 17.8507 4.38729 18.9648 4.25163 20.129C4.16953 19.4341 3.93749 18.8931 3.46628 18.2376C2.74161 17.2238 2.0098 16.7509 0.792496 16.5002C0.760368 17.5462 0.956707 18.2125 1.56 19.0687C2.26325 20.0717 3.00577 20.5553 4.18381 20.7774C4.17667 20.8742 4.16596 20.9709 4.15882 21.0676C4.08028 22.1136 4.06243 23.1203 4.1017 24.0839C3.8768 23.4678 3.54124 23.0056 2.97364 22.4862C2.05621 21.6479 1.24229 21.3363 0 21.3434C0.18206 22.3716 0.517621 22.9841 1.28156 23.697C2.1633 24.5174 2.97721 24.8398 4.14811 24.8219C4.22307 25.8321 4.35873 26.7993 4.55864 27.7164C4.2552 27.3402 3.88751 27.0429 3.37346 26.7456C2.30252 26.1187 1.43863 25.9825 0.224897 26.2512C0.617576 27.2184 1.07094 27.7486 1.96696 28.286C2.94866 28.8735 3.77328 29.0311 4.82994 28.8233C5.07983 29.7082 5.38683 30.5464 5.74738 31.3453C5.43681 31.1375 5.0834 30.9763 4.64431 30.833C3.46628 30.4425 2.59525 30.4891 1.46362 31.005C2.04907 31.8719 2.60239 32.2946 3.58765 32.6313C4.62646 32.986 5.44395 32.986 6.38281 32.6098C6.82189 33.3908 7.31452 34.1252 7.85713 34.813C7.52514 34.6876 7.16459 34.6123 6.73265 34.5622C5.49749 34.4261 4.65502 34.6518 3.65548 35.3933C4.40871 36.1169 5.03699 36.4178 6.07223 36.5396C7.16816 36.6722 7.97137 36.4966 8.82098 35.9235C9.47068 36.6113 10.1739 37.2418 10.9272 37.8221C10.5095 37.729 10.0775 37.7182 9.55279 37.772C8.31764 37.8973 7.53942 38.295 6.7148 39.2264C7.60011 39.778 8.27837 39.9393 9.31361 39.8461C10.4595 39.7422 11.227 39.3768 11.966 38.5708C12.7585 39.101 13.5938 39.5774 14.4648 40.0073C14.1364 40.036 13.7973 40.1112 13.4153 40.233C12.2301 40.6127 11.5554 41.1644 10.9414 42.2463C11.9231 42.6009 12.6157 42.6188 13.6117 42.3072C14.6612 41.9812 15.3216 41.4976 15.8642 40.6342C16.5853 40.9316 17.3278 41.1966 18.0918 41.4331C17.9847 41.4868 17.8776 41.5513 17.7633 41.6158C16.696 42.2534 16.1605 42.9412 15.8035 44.1377C16.8388 44.2631 17.5206 44.1198 18.4202 43.5932C19.1948 43.1418 19.691 42.6475 20.0302 41.9597C20.6799 42.1137 21.3438 42.2463 22.015 42.3609C20.1265 43.5037 18.6379 45.3736 16.9387 46.5988L18.1917 47C20.1694 45.5742 21.3224 43.5144 23.5107 42.7084C25.6919 43.518 26.8378 45.5707 28.8154 46.9928L30.0684 46.5916C28.3764 45.3736 26.8913 43.5072 25.01 42.3645C25.674 42.2499 26.3309 42.1173 26.977 41.9668C27.3161 42.6547 27.8159 43.149 28.587 43.6004C29.4866 44.127 30.1684 44.2667 31.2036 44.1413C30.8502 42.9448 30.3148 42.257 29.2438 41.6194C29.1331 41.5513 29.0225 41.4904 28.9154 41.4367C29.6758 41.2002 30.4183 40.9351 31.1429 40.6378C31.682 41.5011 32.346 41.9848 33.3955 42.3107C34.3915 42.6188 35.0876 42.6045 36.0657 42.2499C35.4517 41.1644 34.777 40.6127 33.5918 40.2366C33.2063 40.1148 32.8707 40.0396 32.5423 40.0109C33.4169 39.5846 34.2522 39.1046 35.0412 38.5744C35.7801 39.3804 36.5441 39.7458 37.6935 39.8497C38.7323 39.9428 39.407 39.7852 40.2924 39.2335C39.4677 38.3021 38.6931 37.9045 37.4544 37.7791C36.9296 37.7254 36.4941 37.7361 36.08 37.8293C36.8332 37.2489 37.5365 36.6184 38.1862 35.9306C39.0358 36.5038 39.8354 36.6793 40.9349 36.5468C41.9702 36.4214 42.5984 36.1241 43.3517 35.4005C42.3521 34.6589 41.5097 34.4332 40.2745 34.5694C39.8426 34.6159 39.482 34.6947 39.15 34.8201C39.6962 34.1323 40.1888 33.4015 40.6243 32.617C41.5632 32.9931 42.3807 32.9931 43.4195 32.6385C44.4048 32.3018 44.9581 31.879 45.5435 31.0121C44.4119 30.4963 43.5409 30.4497 42.3628 30.8402C41.9237 30.987 41.5703 31.1482 41.2598 31.3524C41.6203 30.5572 41.9273 29.7189 42.1772 28.8341C43.2339 29.0418 44.0585 28.8842 45.0402 28.2967C45.9362 27.763 46.3896 27.2328 46.7822 26.262C45.5685 25.9933 44.7082 26.1294 43.6337 26.7563L43.6265 26.7671Z" fill="url(#paint0_linear_37_684)"/>
<defs>
<linearGradient id="paint0_linear_37_684" x1="21.6312" y1="1.89057" x2="21.6312" y2="47.0071" gradientUnits="userSpaceOnUse">
<stop stop-color="#B5CEE6"/>
<stop offset="1" stop-color="#779ABB"/>
</linearGradient>
</defs>
</svg>
