<svg width="18" height="18" viewBox="0 0 18 18" fill="none" xmlns="http://www.w3.org/2000/svg">
<path d="M9.00084 0C4.11183 0 0 3.39782 0 7.75625C0 11.6433 3.25778 14.7979 7.5 15.4044C7.59761 15.4266 7.70209 15.4623 7.76869 15.4932C7.76236 15.5316 7.77743 15.7099 7.75698 15.8729V15.8737C7.75147 15.9084 7.6608 16.4767 7.64146 16.5953L7.6423 16.5944C7.61011 16.7893 7.50692 17.1149 7.79464 17.5718C7.93851 17.8002 8.26266 17.9942 8.55301 17.9998C8.84337 18.0054 9.08706 17.9052 9.35407 17.7511C11.3032 16.6257 13.4209 15.3557 15.0896 13.7609C16.7582 12.166 18 10.1875 18 7.75625C18 3.39797 13.8898 0 9.00084 0ZM9.00084 1.34998C13.327 1.34998 16.7143 4.30533 16.7143 7.75625C16.7143 9.71021 15.741 11.3125 14.2241 12.7624C12.7694 14.1528 10.8347 15.3418 8.97321 16.4222C8.99787 16.2671 9.02846 16.0732 9.02846 16.0732L9.03013 16.0627L9.03181 16.0521C9.06396 15.7989 9.15391 15.4191 8.96484 14.9228L8.96401 14.9219V14.921C8.82104 14.5499 8.55633 14.3885 8.34459 14.2821C8.13285 14.1756 7.93246 14.1208 7.76618 14.0834L7.74107 14.0781L7.71512 14.0746C3.9487 13.5543 1.28571 10.8555 1.28571 7.75625C1.28571 4.30548 4.6747 1.34998 9.00084 1.34998ZM6.99777 5.46146C6.75605 5.46146 6.55915 5.66649 6.55915 5.91848V9.38045C6.55915 9.6329 6.75563 9.83748 6.99777 9.83748C7.23948 9.83748 7.43638 9.63245 7.43638 9.38045V5.91848C7.43638 5.66649 7.23991 5.46146 6.99777 5.46146ZM8.50614 5.46146C8.459 5.46146 8.41178 5.46944 8.36635 5.48519C8.18721 5.54774 8.06669 5.72183 8.06669 5.91848V9.38045C8.06669 9.6329 8.264 9.83748 8.50614 9.83748C8.74871 9.83748 8.94559 9.63245 8.94559 9.38045V7.23946L10.649 9.65467C10.7313 9.76896 10.8626 9.83748 10.9997 9.83748C11.0464 9.83748 11.0932 9.8295 11.1387 9.81375C11.3187 9.7521 11.4392 9.578 11.4392 9.38045V5.9176C11.4392 5.66561 11.2427 5.46146 11.0006 5.46146C10.7584 5.46146 10.5611 5.66561 10.5611 5.9176V8.06035L8.85686 5.64427C8.77458 5.52997 8.64285 5.46146 8.50614 5.46146ZM4.05469 5.46234C3.81297 5.46234 3.61607 5.66649 3.61607 5.91848V9.38133C3.61607 9.63378 3.81254 9.83836 4.05469 9.83836H5.71708C5.95922 9.83836 6.15528 9.63245 6.15485 9.38045C6.15485 9.12845 5.95922 8.92343 5.71708 8.92343H4.49247V5.91848C4.49247 5.66649 4.29683 5.46234 4.05469 5.46234ZM12.4671 5.46234C12.2254 5.46234 12.0285 5.66736 12.0285 5.91936V5.92024V7.64903V7.64991V7.65078V9.38045C12.0285 9.6329 12.2258 9.83748 12.4671 9.83748H14.1295C14.3716 9.83748 14.5689 9.63245 14.5689 9.38045C14.5689 9.12845 14.3716 8.92343 14.1295 8.92343H12.9057V8.10605H14.1295C14.372 8.10605 14.5689 7.90102 14.5689 7.64903C14.5689 7.39658 14.3716 7.192 14.1295 7.192V7.19376H12.9057V6.37639H14.1295C14.372 6.37639 14.5689 6.17136 14.5689 5.91936C14.5689 5.66736 14.3716 5.46234 14.1295 5.46234H12.4671Z" fill="#748193"/>
</svg>
