<svg width="18" height="18" viewBox="0 0 18 18" fill="none" xmlns="http://www.w3.org/2000/svg">
<g clip-path="url(#clip0_63_289)">
<path d="M13.5 7.5C13.5 5.9087 12.8679 4.38258 11.7426 3.25736C10.6174 2.13214 9.0913 1.5 7.5 1.5C5.9087 1.5 4.38258 2.13214 3.25736 3.25736C2.13214 4.38258 1.5 5.9087 1.5 7.5C1.5 11.2448 5.65425 15.1447 7.04925 16.3492C7.17928 16.4468 7.33747 16.4994 7.5 16.4993M13.5 16.5V14.25M11.25 16.5C11.0511 16.5 10.8603 16.421 10.7197 16.2803C10.579 16.1397 10.5 15.9489 10.5 15.75V12.75C10.5 12.6266 10.5304 12.505 10.5887 12.3962C10.6469 12.2873 10.7311 12.1945 10.8337 12.126L13.0837 10.626C13.207 10.5438 13.3518 10.4999 13.5 10.4999C13.6482 10.4999 13.793 10.5438 13.9163 10.626L16.1663 12.126C16.2689 12.1945 16.3531 12.2873 16.4113 12.3962C16.4696 12.505 16.5 12.6266 16.5 12.75V15.75C16.5 15.9489 16.421 16.1397 16.2803 16.2803C16.1397 16.421 15.9489 16.5 15.75 16.5H11.25ZM9.75 7.5C9.75 8.74264 8.74264 9.75 7.5 9.75C6.25736 9.75 5.25 8.74264 5.25 7.5C5.25 6.25736 6.25736 5.25 7.5 5.25C8.74264 5.25 9.75 6.25736 9.75 7.5Z" stroke="#748193" stroke-width="1.5" stroke-linecap="round" stroke-linejoin="round"/>
</g>
<defs>
<clipPath id="clip0_63_289">
<rect width="18" height="18" fill="white"/>
</clipPath>
</defs>
</svg>
